<?plantuml 1.2026.1?><svg xmlns="http://www.w3.org/2000/svg" xmlns:xlink="http://www.w3.org/1999/xlink" contentStyleType="text/css" data-diagram-type="ACTIVITY" height="730px" preserveAspectRatio="none" style="width:203px;height:730px;" version="1.1" viewBox="0 0 203 730" width="203px" zoomAndPan="magnify"><defs/><g><ellipse cx="91.7718" cy="20" fill="#222222" rx="10" ry="10" style="stroke:#222222;stroke-width:1;"/><rect fill="#F1F1F1" height="33.9688" rx="12.5" ry="12.5" style="stroke:#181818;stroke-width:0.5;" width="128.0008" x="27.7714" y="50"/><text fill="#000000" font-family="sans-serif" font-size="12" lengthAdjust="spacing" textLength="108.0008" x="37.7714" y="71.1387">&#20805;&#30005;&#26729;&#21457;&#29983;&#35774;&#22791;&#25925;&#38556;</text><rect fill="#F1F1F1" height="33.9688" rx="12.5" ry="12.5" style="stroke:#181818;stroke-width:0.5;" width="128.0008" x="27.7714" y="103.9688"/><text fill="#000000" font-family="sans-serif" font-size="12" lengthAdjust="spacing" textLength="108.0008" x="37.7714" y="125.1074">&#25509;&#25910;&#24182;&#35760;&#24405;&#25925;&#38556;&#20449;&#24687;</text><rect fill="#F1F1F1" height="33.9688" rx="12.5" ry="12.5" style="stroke:#181818;stroke-width:0.5;" width="151.04" x="16.2518" y="157.9375"/><text fill="#000000" font-family="sans-serif" font-size="12" lengthAdjust="spacing" textLength="131.04" x="26.2518" y="179.0762">&#26356;&#26032;&#20805;&#30005;&#26729;&#29366;&#24577;&#20026;"&#25925;&#38556;"</text><rect fill="#F1F1F1" height="33.9688" rx="12.5" ry="12.5" style="stroke:#181818;stroke-width:0.5;" width="128.0008" x="27.7714" y="211.9063"/><text fill="#000000" font-family="sans-serif" font-size="12" lengthAdjust="spacing" textLength="108.0008" x="37.7714" y="233.0449">&#31649;&#29702;&#21592;&#26597;&#30475;&#25925;&#38556;&#35814;&#24773;</text><rect fill="#F1F1F1" height="33.9688" rx="12.5" ry="12.5" style="stroke:#181818;stroke-width:0.5;" width="152.001" x="15.7713" y="314.2773"/><text fill="#000000" font-family="sans-serif" font-size="12" lengthAdjust="spacing" textLength="132.001" x="25.7713" y="335.416">&#23545;&#21463;&#24433;&#21709;&#35831;&#27714;&#25191;&#34892;&#20877;&#35843;&#24230;</text><rect fill="#F1F1F1" height="33.9688" rx="12.5" ry="12.5" style="stroke:#181818;stroke-width:0.5;" width="128.0008" x="27.7714" y="383.2461"/><text fill="#000000" font-family="sans-serif" font-size="12" lengthAdjust="spacing" textLength="108.0008" x="37.7714" y="404.3848">&#21521;&#30456;&#20851;&#29992;&#25143;&#21457;&#36865;&#36890;&#30693;</text><polygon fill="#F1F1F1" points="32,265.875,151.5437,265.875,163.5437,277.875,151.5437,289.875,32,289.875,20,277.875,32,265.875" style="stroke:#181818;stroke-width:0.5;"/><text fill="#000000" font-family="sans-serif" font-size="11" lengthAdjust="spacing" textLength="10.9999" x="95.7718" y="300.0854">&#26159;</text><text fill="#000000" font-family="sans-serif" font-size="11" lengthAdjust="spacing" textLength="119.5437" x="32" y="281.6831">&#26159;&#21542;&#24433;&#21709;&#24403;&#21069;/&#31561;&#24453;&#29992;&#25143;?</text><text fill="#000000" font-family="sans-serif" font-size="11" lengthAdjust="spacing" textLength="10.9999" x="163.5437" y="275.2808">&#21542;</text><polygon fill="#F1F1F1" points="91.7718,437.2148,103.7718,449.2148,91.7718,461.2148,79.7718,449.2148,91.7718,437.2148" style="stroke:#181818;stroke-width:0.5;"/><rect fill="#F1F1F1" height="33.9688" rx="12.5" ry="12.5" style="stroke:#181818;stroke-width:0.5;" width="128.0008" x="27.7714" y="481.2148"/><text fill="#000000" font-family="sans-serif" font-size="12" lengthAdjust="spacing" textLength="108.0008" x="37.7714" y="502.3535">&#31649;&#29702;&#21592;&#23433;&#25490;&#35774;&#22791;&#26816;&#20462;</text><rect fill="#F1F1F1" height="33.9688" rx="12.5" ry="12.5" style="stroke:#181818;stroke-width:0.5;" width="68.0004" x="57.7717" y="535.1836"/><text fill="#000000" font-family="sans-serif" font-size="12" lengthAdjust="spacing" textLength="48.0004" x="67.7717" y="556.3223">&#25490;&#38500;&#25925;&#38556;</text><rect fill="#F1F1F1" height="33.9688" rx="12.5" ry="12.5" style="stroke:#181818;stroke-width:0.5;" width="128.0008" x="27.7714" y="589.1523"/><text fill="#000000" font-family="sans-serif" font-size="12" lengthAdjust="spacing" textLength="108.0008" x="37.7714" y="610.291">&#24674;&#22797;&#20805;&#30005;&#26729;&#21487;&#29992;&#29366;&#24577;</text><rect fill="#F1F1F1" height="33.9688" rx="12.5" ry="12.5" style="stroke:#181818;stroke-width:0.5;" width="152.001" x="15.7713" y="643.1211"/><text fill="#000000" font-family="sans-serif" font-size="12" lengthAdjust="spacing" textLength="132.001" x="25.7713" y="664.2598">&#21516;&#27493;&#26356;&#26032;&#36816;&#33829;&#29366;&#24577;&#19982;&#25253;&#34920;</text><ellipse cx="91.7718" cy="708.0898" fill="none" rx="11" ry="11" style="stroke:#222222;stroke-width:1;"/><ellipse cx="91.7718" cy="708.0898" fill="#222222" rx="6" ry="6" style="stroke:#222222;stroke-width:1;"/><line style="stroke:#181818;stroke-width:1;" x1="91.7718" x2="91.7718" y1="30" y2="50"/><polygon fill="#181818" points="87.7718,40,91.7718,50,95.7718,40,91.7718,44" style="stroke:#181818;stroke-width:1;"/><line style="stroke:#181818;stroke-width:1;" x1="91.7718" x2="91.7718" y1="83.9688" y2="103.9688"/><polygon fill="#181818" points="87.7718,93.9688,91.7718,103.9688,95.7718,93.9688,91.7718,97.9688" style="stroke:#181818;stroke-width:1;"/><line style="stroke:#181818;stroke-width:1;" x1="91.7718" x2="91.7718" y1="137.9375" y2="157.9375"/><polygon fill="#181818" points="87.7718,147.9375,91.7718,157.9375,95.7718,147.9375,91.7718,151.9375" style="stroke:#181818;stroke-width:1;"/><line style="stroke:#181818;stroke-width:1;" x1="91.7718" x2="91.7718" y1="191.9063" y2="211.9063"/><polygon fill="#181818" points="87.7718,201.9063,91.7718,211.9063,95.7718,201.9063,91.7718,205.9063" style="stroke:#181818;stroke-width:1;"/><line style="stroke:#181818;stroke-width:1;" x1="91.7718" x2="91.7718" y1="348.2461" y2="383.2461"/><polygon fill="#181818" points="87.7718,373.2461,91.7718,383.2461,95.7718,373.2461,91.7718,377.2461" style="stroke:#181818;stroke-width:1;"/><line style="stroke:#181818;stroke-width:1;" x1="91.7718" x2="91.7718" y1="289.875" y2="314.2773"/><polygon fill="#181818" points="87.7718,304.2773,91.7718,314.2773,95.7718,304.2773,91.7718,308.2773" style="stroke:#181818;stroke-width:1;"/><line style="stroke:#181818;stroke-width:1;" x1="163.5437" x2="177.7723" y1="277.875" y2="277.875"/><polygon fill="#181818" points="173.7723,355.7461,177.7723,365.7461,181.7723,355.7461,177.7723,359.7461" style="stroke:#181818;stroke-width:1;"/><line style="stroke:#181818;stroke-width:1;" x1="177.7723" x2="177.7723" y1="277.875" y2="449.2148"/><line style="stroke:#181818;stroke-width:1;" x1="177.7723" x2="103.7718" y1="449.2148" y2="449.2148"/><polygon fill="#181818" points="113.7718,445.2148,103.7718,449.2148,113.7718,453.2148,109.7718,449.2148" style="stroke:#181818;stroke-width:1;"/><line style="stroke:#181818;stroke-width:1;" x1="91.7718" x2="91.7718" y1="417.2148" y2="437.2148"/><polygon fill="#181818" points="87.7718,427.2148,91.7718,437.2148,95.7718,427.2148,91.7718,431.2148" style="stroke:#181818;stroke-width:1;"/><line style="stroke:#181818;stroke-width:1;" x1="91.7718" x2="91.7718" y1="245.875" y2="265.875"/><polygon fill="#181818" points="87.7718,255.875,91.7718,265.875,95.7718,255.875,91.7718,259.875" style="stroke:#181818;stroke-width:1;"/><line style="stroke:#181818;stroke-width:1;" x1="91.7718" x2="91.7718" y1="461.2148" y2="481.2148"/><polygon fill="#181818" points="87.7718,471.2148,91.7718,481.2148,95.7718,471.2148,91.7718,475.2148" style="stroke:#181818;stroke-width:1;"/><line style="stroke:#181818;stroke-width:1;" x1="91.7718" x2="91.7718" y1="515.1836" y2="535.1836"/><polygon fill="#181818" points="87.7718,525.1836,91.7718,535.1836,95.7718,525.1836,91.7718,529.1836" style="stroke:#181818;stroke-width:1;"/><line style="stroke:#181818;stroke-width:1;" x1="91.7718" x2="91.7718" y1="569.1523" y2="589.1523"/><polygon fill="#181818" points="87.7718,579.1523,91.7718,589.1523,95.7718,579.1523,91.7718,583.1523" style="stroke:#181818;stroke-width:1;"/><line style="stroke:#181818;stroke-width:1;" x1="91.7718" x2="91.7718" y1="623.1211" y2="643.1211"/><polygon fill="#181818" points="87.7718,633.1211,91.7718,643.1211,95.7718,633.1211,91.7718,637.1211" style="stroke:#181818;stroke-width:1;"/><line style="stroke:#181818;stroke-width:1;" x1="91.7718" x2="91.7718" y1="677.0898" y2="697.0898"/><polygon fill="#181818" points="87.7718,687.0898,91.7718,697.0898,95.7718,687.0898,91.7718,691.0898" style="stroke:#181818;stroke-width:1;"/><?plantuml-src JP3BJi9058RtynGJLx0mxkd2XObBtw5AKGAqf2tx8YaASYatHI0XLOgue8Met1BWPJWpmriuKWMtv__odtC-BHQLaw8g9d1OYeYfk7wkoFg5c92m9ihQiIQfqGZIzj2bU1MxLfMK73vJuegATPLJF99a7I5D5rKTXS0qQVsBsEzGhj1wbxahwDsHXhbjTGGK8YM7r2Smdp1t1Ck6Fz-iRPBsVjBs9taSxHjeVaACz6QsEFAv8uvGrwPM5YfDqdLevy4FcDSd6LD0qGWEaAO7LX-MOwWLOLc3NF643dEmufq3SZyz3MBzHf9tN11X709l3kKddsVUb8nlIUwDsGN85jae0uk-iAEi2ctFmFpmM_XlMoEzDLgqwmX8YciI3l2jGIJ9OMxiS2MuELAg_afuDJPhToUXkdtk7PoaNw1N_EVDuqlyttaALe4C7TyCMrlCSlwqb4ZUOVP0uEQL93yIusy0?></g></svg>