<?plantuml 1.2026.1?><svg xmlns="http://www.w3.org/2000/svg" xmlns:xlink="http://www.w3.org/1999/xlink" contentStyleType="text/css" data-diagram-type="ACTIVITY" height="956px" preserveAspectRatio="none" style="width:492px;height:956px;background:#FFFFFF;" version="1.1" viewBox="0 0 492 956" width="492px" zoomAndPan="magnify"><title>&#23458;&#25143;&#20351;&#29992;&#20805;&#30005;&#26381;&#21153;&#30340;&#19994;&#21153;&#27969;&#31243;&#22270;</title><defs/><g><g class="title" data-source-line="1"><text fill="#000000" font-family="sans-serif" font-size="14" font-weight="bold" lengthAdjust="spacing" textLength="195.9991" x="146.5018" y="32.9951">&#23458;&#25143;&#20351;&#29992;&#20805;&#30005;&#26381;&#21153;&#30340;&#19994;&#21153;&#27969;&#31243;&#22270;</text></g><ellipse cx="293.5017" cy="57.2969" fill="#222222" rx="10" ry="10" style="stroke:#222222;stroke-width:1;"/><rect fill="#F1F1F1" height="33.9688" rx="12.5" ry="12.5" style="stroke:#181818;stroke-width:0.5;" width="104.0006" x="241.5013" y="87.2969"/><text fill="#000000" font-family="sans-serif" font-size="12" lengthAdjust="spacing" textLength="84.0006" x="251.5013" y="108.4355">&#29992;&#25143;&#36827;&#20837;&#31561;&#20505;&#21306;</text><rect fill="#F1F1F1" height="47.9375" rx="12.5" ry="12.5" style="stroke:#181818;stroke-width:0.5;" width="173.3644" x="206.8195" y="141.2656"/><text fill="#000000" font-family="sans-serif" font-size="12" lengthAdjust="spacing" textLength="72.0005" x="216.8195" y="162.4043">&#25552;&#20132;&#20805;&#30005;&#35831;&#27714;</text><text fill="#000000" font-family="sans-serif" font-size="12" lengthAdjust="spacing" textLength="153.3644" x="216.8195" y="176.373">(&#36710;&#36742;&#20449;&#24687;&#12289;&#27169;&#24335;&#12289;&#30446;&#26631;&#30005;&#37327;)</text><rect fill="#F1F1F1" height="33.9688" rx="12.5" ry="12.5" style="stroke:#181818;stroke-width:0.5;" width="92.0005" x="247.5014" y="209.2031"/><text fill="#000000" font-family="sans-serif" font-size="12" lengthAdjust="spacing" textLength="72.0005" x="257.5014" y="230.3418">&#31995;&#32479;&#26657;&#39564;&#35831;&#27714;</text><polygon fill="#F1F1F1" points="255.0019,263.1719,332.0014,263.1719,344.0014,275.1719,332.0014,287.1719,255.0019,287.1719,243.0019,275.1719,255.0019,263.1719" style="stroke:#181818;stroke-width:0.5;"/><text fill="#000000" font-family="sans-serif" font-size="11" lengthAdjust="spacing" textLength="76.9995" x="255.0019" y="278.98">&#35831;&#27714;&#26159;&#21542;&#21512;&#27861;&#65311;</text><text fill="#000000" font-family="sans-serif" font-size="11" lengthAdjust="spacing" textLength="10.9999" x="232.002" y="272.5776">&#26159;</text><text fill="#000000" font-family="sans-serif" font-size="11" lengthAdjust="spacing" textLength="10.9999" x="344.0014" y="272.5776">&#21542;</text><rect fill="#F1F1F1" height="33.9688" rx="12.5" ry="12.5" style="stroke:#181818;stroke-width:0.5;" width="156.044" x="91.979" y="297.1719"/><text fill="#000000" font-family="sans-serif" font-size="12" lengthAdjust="spacing" textLength="136.044" x="101.979" y="318.3105">&#25353;&#24555;&#20805;/&#24930;&#20805;&#20998;&#37197;&#31561;&#24453;&#38431;&#21015;</text><rect fill="#F1F1F1" height="33.9688" rx="12.5" ry="12.5" style="stroke:#181818;stroke-width:0.5;" width="116.0007" x="112.0006" y="351.1406"/><text fill="#000000" font-family="sans-serif" font-size="12" lengthAdjust="spacing" textLength="96.0007" x="122.0006" y="372.2793">&#29992;&#25143;&#26597;&#30475;&#25490;&#38431;&#29366;&#24577;</text><rect fill="#F1F1F1" height="33.9688" rx="12.5" ry="12.5" style="stroke:#181818;stroke-width:0.5;" width="128.0008" x="106.0006" y="453.5117"/><text fill="#000000" font-family="sans-serif" font-size="12" lengthAdjust="spacing" textLength="108.0008" x="116.0006" y="474.6504">&#26356;&#26032;&#35831;&#27714;&#24182;&#37325;&#26032;&#25490;&#38431;</text><polygon fill="#F1F1F1" points="131.5013,405.1094,208.5007,405.1094,220.5007,417.1094,208.5007,429.1094,131.5013,429.1094,119.5013,417.1094,131.5013,405.1094" style="stroke:#181818;stroke-width:0.5;"/><text fill="#000000" font-family="sans-serif" font-size="11" lengthAdjust="spacing" textLength="10.9999" x="174.001" y="439.3198">&#26159;</text><text fill="#000000" font-family="sans-serif" font-size="11" lengthAdjust="spacing" textLength="76.9995" x="131.5013" y="420.9175">&#26159;&#21542;&#20462;&#25913;&#35831;&#27714;&#65311;</text><text fill="#000000" font-family="sans-serif" font-size="11" lengthAdjust="spacing" textLength="10.9999" x="220.5007" y="414.5151">&#21542;</text><polygon fill="#F1F1F1" points="170.001,507.4805,182.001,519.4805,170.001,531.4805,158.001,519.4805,170.001,507.4805" style="stroke:#181818;stroke-width:0.5;"/><polygon fill="#F1F1F1" points="131.5013,551.4805,208.5007,551.4805,220.5007,563.4805,208.5007,575.4805,131.5013,575.4805,119.5013,563.4805,131.5013,551.4805" style="stroke:#181818;stroke-width:0.5;"/><text fill="#000000" font-family="sans-serif" font-size="11" lengthAdjust="spacing" textLength="76.9995" x="131.5013" y="567.2886">&#26159;&#21542;&#21462;&#28040;&#35831;&#27714;&#65311;</text><text fill="#000000" font-family="sans-serif" font-size="11" lengthAdjust="spacing" textLength="10.9999" x="108.5013" y="560.8862">&#26159;</text><text fill="#000000" font-family="sans-serif" font-size="11" lengthAdjust="spacing" textLength="10.9999" x="220.5007" y="560.8862">&#21542;</text><rect fill="#F1F1F1" height="33.9688" rx="12.5" ry="12.5" style="stroke:#181818;stroke-width:0.5;" width="152.001" x="11" y="585.4805"/><text fill="#000000" font-family="sans-serif" font-size="12" lengthAdjust="spacing" textLength="132.001" x="21" y="606.6191">&#31227;&#38500;&#35831;&#27714;&#24182;&#32467;&#26463;&#26412;&#27425;&#26381;&#21153;</text><ellipse cx="87.0005" cy="650.4492" fill="none" rx="11" ry="11" style="stroke:#222222;stroke-width:1;"/><ellipse cx="87.0005" cy="650.4492" fill="#222222" rx="6" ry="6" style="stroke:#222222;stroke-width:1;"/><rect fill="#F1F1F1" height="33.9688" rx="12.5" ry="12.5" style="stroke:#181818;stroke-width:0.5;" width="128.0008" x="189.0011" y="585.4805"/><text fill="#000000" font-family="sans-serif" font-size="12" lengthAdjust="spacing" textLength="108.0008" x="199.0011" y="606.6191">&#31995;&#32479;&#35843;&#24230;&#36827;&#20837;&#20805;&#30005;&#21306;</text><rect fill="#F1F1F1" height="33.9688" rx="12.5" ry="12.5" style="stroke:#181818;stroke-width:0.5;" width="132.0438" x="186.9796" y="639.4492"/><text fill="#000000" font-family="sans-serif" font-size="12" lengthAdjust="spacing" textLength="112.0438" x="196.9796" y="660.5879">&#20998;&#37197;&#20805;&#30005;&#26729;/&#31561;&#24453;&#36710;&#20301;</text><rect fill="#F1F1F1" height="33.9688" rx="12.5" ry="12.5" style="stroke:#181818;stroke-width:0.5;" width="68.0004" x="219.0013" y="693.418"/><text fill="#000000" font-family="sans-serif" font-size="12" lengthAdjust="spacing" textLength="48.0004" x="229.0013" y="714.5566">&#24320;&#22987;&#20805;&#30005;</text><rect fill="#F1F1F1" height="33.9688" rx="12.5" ry="12.5" style="stroke:#181818;stroke-width:0.5;" width="140.0009" x="183.001" y="747.3867"/><text fill="#000000" font-family="sans-serif" font-size="12" lengthAdjust="spacing" textLength="120.0009" x="193.001" y="768.5254">&#32467;&#26463;&#20805;&#30005;&#24182;&#35760;&#24405;&#20805;&#30005;&#37327;</text><rect fill="#F1F1F1" height="47.9375" rx="12.5" ry="12.5" style="stroke:#181818;stroke-width:0.5;" width="111.4185" x="197.2922" y="801.3555"/><text fill="#000000" font-family="sans-serif" font-size="12" lengthAdjust="spacing" textLength="48.0004" x="207.2922" y="822.4941">&#29983;&#25104;&#36134;&#21333;</text><text fill="#000000" font-family="sans-serif" font-size="12" lengthAdjust="spacing" textLength="91.4185" x="207.2922" y="836.4629">(&#20805;&#30005;&#36153;+&#26381;&#21153;&#36153;)</text><rect fill="#F1F1F1" height="33.9688" rx="12.5" ry="12.5" style="stroke:#181818;stroke-width:0.5;" width="140.0009" x="183.001" y="869.293"/><text fill="#000000" font-family="sans-serif" font-size="12" lengthAdjust="spacing" textLength="120.0009" x="193.001" y="890.4316">&#29992;&#25143;&#23436;&#25104;&#26412;&#27425;&#20805;&#30005;&#26381;&#21153;</text><ellipse cx="253.0015" cy="934.2617" fill="none" rx="11" ry="11" style="stroke:#222222;stroke-width:1;"/><ellipse cx="253.0015" cy="934.2617" fill="#222222" rx="6" ry="6" style="stroke:#222222;stroke-width:1;"/><rect fill="#F1F1F1" height="33.9688" rx="12.5" ry="12.5" style="stroke:#181818;stroke-width:0.5;" width="128.0008" x="353.0019" y="297.1719"/><text fill="#000000" font-family="sans-serif" font-size="12" lengthAdjust="spacing" textLength="108.0008" x="363.0019" y="318.3105">&#25552;&#31034;&#35831;&#27714;&#20449;&#24687;&#19981;&#21512;&#27861;</text><rect fill="#F1F1F1" height="33.9688" rx="12.5" ry="12.5" style="stroke:#181818;stroke-width:0.5;" width="116.0007" x="359.002" y="351.1406"/><text fill="#000000" font-family="sans-serif" font-size="12" lengthAdjust="spacing" textLength="96.0007" x="369.002" y="372.2793">&#37325;&#26032;&#25552;&#20132;&#20805;&#30005;&#35831;&#27714;</text><ellipse cx="417.0023" cy="416.1094" fill="none" rx="11" ry="11" style="stroke:#222222;stroke-width:1;"/><ellipse cx="417.0023" cy="416.1094" fill="#222222" rx="6" ry="6" style="stroke:#222222;stroke-width:1;"/><line style="stroke:#181818;stroke-width:1;" x1="293.5017" x2="293.5017" y1="67.2969" y2="87.2969"/><polygon fill="#181818" points="289.5017,77.2969,293.5017,87.2969,297.5017,77.2969,293.5017,81.2969" style="stroke:#181818;stroke-width:1;"/><line style="stroke:#181818;stroke-width:1;" x1="293.5017" x2="293.5017" y1="121.2656" y2="141.2656"/><polygon fill="#181818" points="289.5017,131.2656,293.5017,141.2656,297.5017,131.2656,293.5017,135.2656" style="stroke:#181818;stroke-width:1;"/><line style="stroke:#181818;stroke-width:1;" x1="293.5017" x2="293.5017" y1="189.2031" y2="209.2031"/><polygon fill="#181818" points="289.5017,199.2031,293.5017,209.2031,297.5017,199.2031,293.5017,203.2031" style="stroke:#181818;stroke-width:1;"/><line style="stroke:#181818;stroke-width:1;" x1="170.001" x2="170.001" y1="331.1406" y2="351.1406"/><polygon fill="#181818" points="166.001,341.1406,170.001,351.1406,174.001,341.1406,170.001,345.1406" style="stroke:#181818;stroke-width:1;"/><line style="stroke:#181818;stroke-width:1;" x1="170.001" x2="170.001" y1="429.1094" y2="453.5117"/><polygon fill="#181818" points="166.001,443.5117,170.001,453.5117,174.001,443.5117,170.001,447.5117" style="stroke:#181818;stroke-width:1;"/><line style="stroke:#181818;stroke-width:1;" x1="220.5007" x2="244.0014" y1="417.1094" y2="417.1094"/><polygon fill="#181818" points="240.0014,460.4961,244.0014,470.4961,248.0014,460.4961,244.0014,464.4961" style="stroke:#181818;stroke-width:1;"/><line style="stroke:#181818;stroke-width:1;" x1="244.0014" x2="244.0014" y1="417.1094" y2="519.4805"/><line style="stroke:#181818;stroke-width:1;" x1="244.0014" x2="182.001" y1="519.4805" y2="519.4805"/><polygon fill="#181818" points="192.001,515.4805,182.001,519.4805,192.001,523.4805,188.001,519.4805" style="stroke:#181818;stroke-width:1;"/><line style="stroke:#181818;stroke-width:1;" x1="170.001" x2="170.001" y1="487.4805" y2="507.4805"/><polygon fill="#181818" points="166.001,497.4805,170.001,507.4805,174.001,497.4805,170.001,501.4805" style="stroke:#181818;stroke-width:1;"/><line style="stroke:#181818;stroke-width:1;" x1="170.001" x2="170.001" y1="385.1094" y2="405.1094"/><polygon fill="#181818" points="166.001,395.1094,170.001,405.1094,174.001,395.1094,170.001,399.1094" style="stroke:#181818;stroke-width:1;"/><line style="stroke:#181818;stroke-width:1;" x1="87.0005" x2="87.0005" y1="619.4492" y2="639.4492"/><polygon fill="#181818" points="83.0005,629.4492,87.0005,639.4492,91.0005,629.4492,87.0005,633.4492" style="stroke:#181818;stroke-width:1;"/><line style="stroke:#181818;stroke-width:1;" x1="253.0015" x2="253.0015" y1="619.4492" y2="639.4492"/><polygon fill="#181818" points="249.0015,629.4492,253.0015,639.4492,257.0015,629.4492,253.0015,633.4492" style="stroke:#181818;stroke-width:1;"/><line style="stroke:#181818;stroke-width:1;" x1="253.0015" x2="253.0015" y1="673.418" y2="693.418"/><polygon fill="#181818" points="249.0015,683.418,253.0015,693.418,257.0015,683.418,253.0015,687.418" style="stroke:#181818;stroke-width:1;"/><line style="stroke:#181818;stroke-width:1;" x1="253.0015" x2="253.0015" y1="727.3867" y2="747.3867"/><polygon fill="#181818" points="249.0015,737.3867,253.0015,747.3867,257.0015,737.3867,253.0015,741.3867" style="stroke:#181818;stroke-width:1;"/><line style="stroke:#181818;stroke-width:1;" x1="253.0015" x2="253.0015" y1="781.3555" y2="801.3555"/><polygon fill="#181818" points="249.0015,791.3555,253.0015,801.3555,257.0015,791.3555,253.0015,795.3555" style="stroke:#181818;stroke-width:1;"/><line style="stroke:#181818;stroke-width:1;" x1="253.0015" x2="253.0015" y1="849.293" y2="869.293"/><polygon fill="#181818" points="249.0015,859.293,253.0015,869.293,257.0015,859.293,253.0015,863.293" style="stroke:#181818;stroke-width:1;"/><line style="stroke:#181818;stroke-width:1;" x1="253.0015" x2="253.0015" y1="903.2617" y2="923.2617"/><polygon fill="#181818" points="249.0015,913.2617,253.0015,923.2617,257.0015,913.2617,253.0015,917.2617" style="stroke:#181818;stroke-width:1;"/><line style="stroke:#181818;stroke-width:1;" x1="119.5013" x2="87.0005" y1="563.4805" y2="563.4805"/><line style="stroke:#181818;stroke-width:1;" x1="87.0005" x2="87.0005" y1="563.4805" y2="585.4805"/><polygon fill="#181818" points="83.0005,575.4805,87.0005,585.4805,91.0005,575.4805,87.0005,579.4805" style="stroke:#181818;stroke-width:1;"/><line style="stroke:#181818;stroke-width:1;" x1="220.5007" x2="253.0015" y1="563.4805" y2="563.4805"/><line style="stroke:#181818;stroke-width:1;" x1="253.0015" x2="253.0015" y1="563.4805" y2="585.4805"/><polygon fill="#181818" points="249.0015,575.4805,253.0015,585.4805,257.0015,575.4805,253.0015,579.4805" style="stroke:#181818;stroke-width:1;"/><line style="stroke:#181818;stroke-width:1;" x1="170.001" x2="170.001" y1="531.4805" y2="551.4805"/><polygon fill="#181818" points="166.001,541.4805,170.001,551.4805,174.001,541.4805,170.001,545.4805" style="stroke:#181818;stroke-width:1;"/><line style="stroke:#181818;stroke-width:1;" x1="417.0023" x2="417.0023" y1="331.1406" y2="351.1406"/><polygon fill="#181818" points="413.0023,341.1406,417.0023,351.1406,421.0023,341.1406,417.0023,345.1406" style="stroke:#181818;stroke-width:1;"/><line style="stroke:#181818;stroke-width:1;" x1="417.0023" x2="417.0023" y1="385.1094" y2="405.1094"/><polygon fill="#181818" points="413.0023,395.1094,417.0023,405.1094,421.0023,395.1094,417.0023,399.1094" style="stroke:#181818;stroke-width:1;"/><line style="stroke:#181818;stroke-width:1;" x1="243.0019" x2="170.001" y1="275.1719" y2="275.1719"/><line style="stroke:#181818;stroke-width:1;" x1="170.001" x2="170.001" y1="275.1719" y2="297.1719"/><polygon fill="#181818" points="166.001,287.1719,170.001,297.1719,174.001,287.1719,170.001,291.1719" style="stroke:#181818;stroke-width:1;"/><line style="stroke:#181818;stroke-width:1;" x1="344.0014" x2="417.0023" y1="275.1719" y2="275.1719"/><line style="stroke:#181818;stroke-width:1;" x1="417.0023" x2="417.0023" y1="275.1719" y2="297.1719"/><polygon fill="#181818" points="413.0023,287.1719,417.0023,297.1719,421.0023,287.1719,417.0023,291.1719" style="stroke:#181818;stroke-width:1;"/><line style="stroke:#181818;stroke-width:1;" x1="293.5017" x2="293.5017" y1="243.1719" y2="263.1719"/><polygon fill="#181818" points="289.5017,253.1719,293.5017,263.1719,297.5017,253.1719,293.5017,257.1719" style="stroke:#181818;stroke-width:1;"/><?plantuml-src VLBDJjj04BxxAVQOY0Ftv5LwgLGZ8g606Zz0GcjYI4oYagH0WenH2A459uWGyk-7mJDhd_eAdVKOH8hKqyxkVlDzC_EDaJDsT07U5LhFmTANZJwOfcmyOSU68rUUVmycvnJWKqdsAz1UQLh1-FpLqBGCGIadzDjWNilxGoYUGNMMrJ9OgmUpBhE4WsTysF-KJuNBNhWw27mNIuENOWdxBYng5CYsXvTbGaRbMfgIvUDSpXsyTADVLKxEQbfkIwJuWgS3gFUWRk5Zyy_2IGjZMy-B53sdDI4oM3q4_pT9Rw9vHGTO1v5fg-9MPdJgWFKpgs1SEJhNibF1un_q8u_6M2oHb11AZ6K2tyF6b8K_YYcvzWXRGmR0T1oLRReoeTBHTmgwI16HWklvBxcjTNwejN1i_OTVtioZi-uRlvoVu8M3dJkySzcUR8mh6Bjx_ygfx7YKuV0Rp7hi4diIknGZU3o9t-xj9W-Ah0gMzYjaKOIR2aEI9ouZuPgEGsy8ooPVoSHNKCD1gnwEUc0toVva6qRJ3IwSelGRKfa1NfNmtDlx1Lpla6UurgXQDzcTyP1uluA9pHiIcvsuyc4frMVCown_0G00?></g></svg>