<?plantuml 1.2026.1?><svg xmlns="http://www.w3.org/2000/svg" xmlns:xlink="http://www.w3.org/1999/xlink" contentStyleType="text/css" data-diagram-type="CLASS" height="877px" preserveAspectRatio="none" style="width:783px;height:877px;" version="1.1" viewBox="0 0 783 877" width="783px" zoomAndPan="magnify"><defs/><g><!--class ??--><g class="entity" data-qualified-name=".." data-source-line="4" id="ent0002"><rect fill="#F1F1F1" height="48" rx="2.5" ry="2.5" style="stroke:#181818;stroke-width:0.5;" width="59.9999" x="51" y="249.14"/><ellipse cx="66" cy="265.14" fill="#ADD1B2" rx="11" ry="11" style="stroke:#181818;stroke-width:1;"/><path d="M68.9688,270.7806 Q68.3906,271.0775 67.75,271.2181 Q67.1094,271.3744 66.4063,271.3744 Q63.9063,271.3744 62.5781,269.7338 Q61.2656,268.0775 61.2656,264.9525 Q61.2656,261.8275 62.5781,260.1713 Q63.9063,258.515 66.4063,258.515 Q67.1094,258.515 67.75,258.6713 Q68.4063,258.8275 68.9688,259.1244 L68.9688,261.8431 Q68.3438,261.265 67.75,260.9994 Q67.1563,260.7181 66.5313,260.7181 Q65.1875,260.7181 64.5,261.7963 Q63.8125,262.8588 63.8125,264.9525 Q63.8125,267.0463 64.5,268.1244 Q65.1875,269.1869 66.5313,269.1869 Q67.1563,269.1869 67.75,268.9213 Q68.3438,268.64 68.9688,268.0619 L68.9688,270.7806 Z " fill="#000000"/><text fill="#000000" font-family="sans-serif" font-size="14" lengthAdjust="spacing" textLength="27.9999" x="80" y="269.9867">&#29992;&#25143;</text><line style="stroke:#181818;stroke-width:0.5;" x1="52" x2="109.9999" y1="281.14" y2="281.14"/><line style="stroke:#181818;stroke-width:0.5;" x1="52" x2="109.9999" y1="289.14" y2="289.14"/></g><!--class ??--><g class="entity" data-qualified-name=".." data-source-line="6" id="ent0003"><rect fill="#F1F1F1" height="48" rx="2.5" ry="2.5" style="stroke:#181818;stroke-width:0.5;" width="59.9999" x="7" y="414.89"/><ellipse cx="22" cy="430.89" fill="#ADD1B2" rx="11" ry="11" style="stroke:#181818;stroke-width:1;"/><path d="M24.9688,436.5306 Q24.3906,436.8275 23.75,436.9681 Q23.1094,437.1244 22.4063,437.1244 Q19.9063,437.1244 18.5781,435.4838 Q17.2656,433.8275 17.2656,430.7025 Q17.2656,427.5775 18.5781,425.9213 Q19.9063,424.265 22.4063,424.265 Q23.1094,424.265 23.75,424.4213 Q24.4063,424.5775 24.9688,424.8744 L24.9688,427.5931 Q24.3438,427.015 23.75,426.7494 Q23.1563,426.4681 22.5313,426.4681 Q21.1875,426.4681 20.5,427.5463 Q19.8125,428.6088 19.8125,430.7025 Q19.8125,432.7963 20.5,433.8744 Q21.1875,434.9369 22.5313,434.9369 Q23.1563,434.9369 23.75,434.6713 Q24.3438,434.39 24.9688,433.8119 L24.9688,436.5306 Z " fill="#000000"/><text fill="#000000" font-family="sans-serif" font-size="14" lengthAdjust="spacing" textLength="27.9999" x="36" y="435.7367">&#36710;&#36742;</text><line style="stroke:#181818;stroke-width:0.5;" x1="8" x2="65.9999" y1="446.89" y2="446.89"/><line style="stroke:#181818;stroke-width:0.5;" x1="8" x2="65.9999" y1="454.89" y2="454.89"/></g><!--class ????--><g class="entity" data-qualified-name="...." data-source-line="8" id="ent0004"><rect fill="#F1F1F1" height="113.1875" rx="2.5" ry="2.5" style="stroke:#181818;stroke-width:0.5;" width="87.9998" x="102" y="382.29"/><ellipse cx="117" cy="398.29" fill="#ADD1B2" rx="11" ry="11" style="stroke:#181818;stroke-width:1;"/><path d="M119.9688,403.9306 Q119.3906,404.2275 118.75,404.3681 Q118.1094,404.5244 117.4063,404.5244 Q114.9063,404.5244 113.5781,402.8838 Q112.2656,401.2275 112.2656,398.1025 Q112.2656,394.9775 113.5781,393.3213 Q114.9063,391.665 117.4063,391.665 Q118.1094,391.665 118.75,391.8213 Q119.4063,391.9775 119.9688,392.2744 L119.9688,394.9931 Q119.3438,394.415 118.75,394.1494 Q118.1563,393.8681 117.5313,393.8681 Q116.1875,393.8681 115.5,394.9463 Q114.8125,396.0088 114.8125,398.1025 Q114.8125,400.1963 115.5,401.2744 Q116.1875,402.3369 117.5313,402.3369 Q118.1563,402.3369 118.75,402.0713 Q119.3438,401.79 119.9688,401.2119 L119.9688,403.9306 Z " fill="#000000"/><text fill="#000000" font-family="sans-serif" font-size="14" lengthAdjust="spacing" textLength="55.9998" x="131" y="403.1367">&#20805;&#30005;&#35831;&#27714;</text><line style="stroke:#181818;stroke-width:0.5;" x1="103" x2="188.9998" y1="414.29" y2="414.29"/><text fill="#000000" font-family="sans-serif" font-size="14" lengthAdjust="spacing" textLength="55.9998" x="108" y="431.2851">&#35831;&#27714;&#32534;&#21495;</text><text fill="#000000" font-family="sans-serif" font-size="14" lengthAdjust="spacing" textLength="55.9998" x="108" y="447.582">&#20805;&#30005;&#27169;&#24335;</text><text fill="#000000" font-family="sans-serif" font-size="14" lengthAdjust="spacing" textLength="55.9998" x="108" y="463.8789">&#30446;&#26631;&#30005;&#37327;</text><text fill="#000000" font-family="sans-serif" font-size="14" lengthAdjust="spacing" textLength="27.9999" x="108" y="480.1757">&#29366;&#24577;</text><line style="stroke:#181818;stroke-width:0.5;" x1="103" x2="188.9998" y1="487.4775" y2="487.4775"/></g><!--class ???--><g class="entity" data-qualified-name="..." data-source-line="14" id="ent0005"><rect fill="#F1F1F1" height="48" rx="2.5" ry="2.5" style="stroke:#181818;stroke-width:0.5;" width="73.9998" x="385" y="7"/><ellipse cx="400" cy="23" fill="#ADD1B2" rx="11" ry="11" style="stroke:#181818;stroke-width:1;"/><path d="M402.9688,28.6406 Q402.3906,28.9375 401.75,29.0781 Q401.1094,29.2344 400.4063,29.2344 Q397.9063,29.2344 396.5781,27.5938 Q395.2656,25.9375 395.2656,22.8125 Q395.2656,19.6875 396.5781,18.0313 Q397.9063,16.375 400.4063,16.375 Q401.1094,16.375 401.75,16.5313 Q402.4063,16.6875 402.9688,16.9844 L402.9688,19.7031 Q402.3438,19.125 401.75,18.8594 Q401.1563,18.5781 400.5313,18.5781 Q399.1875,18.5781 398.5,19.6563 Q397.8125,20.7188 397.8125,22.8125 Q397.8125,24.9063 398.5,25.9844 Q399.1875,27.0469 400.5313,27.0469 Q401.1563,27.0469 401.75,26.7813 Q402.3438,26.5 402.9688,25.9219 L402.9688,28.6406 Z " fill="#000000"/><text fill="#000000" font-family="sans-serif" font-size="14" lengthAdjust="spacing" textLength="41.9998" x="414" y="27.8467">&#20805;&#30005;&#31449;</text><line style="stroke:#181818;stroke-width:0.5;" x1="386" x2="457.9998" y1="39" y2="39"/><line style="stroke:#181818;stroke-width:0.5;" x1="386" x2="457.9998" y1="47" y2="47"/></g><!--class ???--><g class="entity" data-qualified-name="..." data-source-line="16" id="ent0006"><rect fill="#F1F1F1" height="48" rx="2.5" ry="2.5" style="stroke:#181818;stroke-width:0.5;" width="73.9998" x="331" y="116"/><ellipse cx="346" cy="132" fill="#ADD1B2" rx="11" ry="11" style="stroke:#181818;stroke-width:1;"/><path d="M348.9688,137.6406 Q348.3906,137.9375 347.75,138.0781 Q347.1094,138.2344 346.4063,138.2344 Q343.9063,138.2344 342.5781,136.5938 Q341.2656,134.9375 341.2656,131.8125 Q341.2656,128.6875 342.5781,127.0313 Q343.9063,125.375 346.4063,125.375 Q347.1094,125.375 347.75,125.5313 Q348.4063,125.6875 348.9688,125.9844 L348.9688,128.7031 Q348.3438,128.125 347.75,127.8594 Q347.1563,127.5781 346.5313,127.5781 Q345.1875,127.5781 344.5,128.6563 Q343.8125,129.7188 343.8125,131.8125 Q343.8125,133.9063 344.5,134.9844 Q345.1875,136.0469 346.5313,136.0469 Q347.1563,136.0469 347.75,135.7813 Q348.3438,135.5 348.9688,134.9219 L348.9688,137.6406 Z " fill="#000000"/><text fill="#000000" font-family="sans-serif" font-size="14" lengthAdjust="spacing" textLength="41.9998" x="360" y="136.8467">&#31561;&#20505;&#21306;</text><line style="stroke:#181818;stroke-width:0.5;" x1="332" x2="403.9998" y1="148" y2="148"/><line style="stroke:#181818;stroke-width:0.5;" x1="332" x2="403.9998" y1="156" y2="156"/></g><!--class ???--><g class="entity" data-qualified-name="..." data-source-line="18" id="ent0007"><rect fill="#F1F1F1" height="48" rx="2.5" ry="2.5" style="stroke:#181818;stroke-width:0.5;" width="73.9998" x="449" y="116"/><ellipse cx="464" cy="132" fill="#ADD1B2" rx="11" ry="11" style="stroke:#181818;stroke-width:1;"/><path d="M466.9688,137.6406 Q466.3906,137.9375 465.75,138.0781 Q465.1094,138.2344 464.4063,138.2344 Q461.9063,138.2344 460.5781,136.5938 Q459.2656,134.9375 459.2656,131.8125 Q459.2656,128.6875 460.5781,127.0313 Q461.9063,125.375 464.4063,125.375 Q465.1094,125.375 465.75,125.5313 Q466.4063,125.6875 466.9688,125.9844 L466.9688,128.7031 Q466.3438,128.125 465.75,127.8594 Q465.1563,127.5781 464.5313,127.5781 Q463.1875,127.5781 462.5,128.6563 Q461.8125,129.7188 461.8125,131.8125 Q461.8125,133.9063 462.5,134.9844 Q463.1875,136.0469 464.5313,136.0469 Q465.1563,136.0469 465.75,135.7813 Q466.3438,135.5 466.9688,134.9219 L466.9688,137.6406 Z " fill="#000000"/><text fill="#000000" font-family="sans-serif" font-size="14" lengthAdjust="spacing" textLength="41.9998" x="478" y="136.8467">&#20805;&#30005;&#21306;</text><line style="stroke:#181818;stroke-width:0.5;" x1="450" x2="521.9998" y1="148" y2="148"/><line style="stroke:#181818;stroke-width:0.5;" x1="450" x2="521.9998" y1="156" y2="156"/></g><!--class ????--><g class="entity" data-qualified-name="...." data-source-line="20" id="ent0008"><rect fill="#F1F1F1" height="48" rx="2.5" ry="2.5" style="stroke:#181818;stroke-width:0.5;" width="87.9998" x="229" y="249.14"/><ellipse cx="244" cy="265.14" fill="#ADD1B2" rx="11" ry="11" style="stroke:#181818;stroke-width:1;"/><path d="M246.9688,270.7806 Q246.3906,271.0775 245.75,271.2181 Q245.1094,271.3744 244.4063,271.3744 Q241.9063,271.3744 240.5781,269.7338 Q239.2656,268.0775 239.2656,264.9525 Q239.2656,261.8275 240.5781,260.1713 Q241.9063,258.515 244.4063,258.515 Q245.1094,258.515 245.75,258.6713 Q246.4063,258.8275 246.9688,259.1244 L246.9688,261.8431 Q246.3438,261.265 245.75,260.9994 Q245.1563,260.7181 244.5313,260.7181 Q243.1875,260.7181 242.5,261.7963 Q241.8125,262.8588 241.8125,264.9525 Q241.8125,267.0463 242.5,268.1244 Q243.1875,269.1869 244.5313,269.1869 Q245.1563,269.1869 245.75,268.9213 Q246.3438,268.64 246.9688,268.0619 L246.9688,270.7806 Z " fill="#000000"/><text fill="#000000" font-family="sans-serif" font-size="14" lengthAdjust="spacing" textLength="55.9998" x="258" y="269.9867">&#31561;&#24453;&#38431;&#21015;</text><line style="stroke:#181818;stroke-width:0.5;" x1="230" x2="315.9998" y1="281.14" y2="281.14"/><line style="stroke:#181818;stroke-width:0.5;" x1="230" x2="315.9998" y1="289.14" y2="289.14"/></g><!--class ????--><g class="entity" data-qualified-name="...." data-source-line="22" id="ent0009"><rect fill="#F1F1F1" height="48" rx="2.5" ry="2.5" style="stroke:#181818;stroke-width:0.5;" width="87.9998" x="225" y="414.89"/><ellipse cx="240" cy="430.89" fill="#ADD1B2" rx="11" ry="11" style="stroke:#181818;stroke-width:1;"/><path d="M242.9688,436.5306 Q242.3906,436.8275 241.75,436.9681 Q241.1094,437.1244 240.4063,437.1244 Q237.9063,437.1244 236.5781,435.4838 Q235.2656,433.8275 235.2656,430.7025 Q235.2656,427.5775 236.5781,425.9213 Q237.9063,424.265 240.4063,424.265 Q241.1094,424.265 241.75,424.4213 Q242.4063,424.5775 242.9688,424.8744 L242.9688,427.5931 Q242.3438,427.015 241.75,426.7494 Q241.1563,426.4681 240.5313,426.4681 Q239.1875,426.4681 238.5,427.5463 Q237.8125,428.6088 237.8125,430.7025 Q237.8125,432.7963 238.5,433.8744 Q239.1875,434.9369 240.5313,434.9369 Q241.1563,434.9369 241.75,434.6713 Q242.3438,434.39 242.9688,433.8119 L242.9688,436.5306 Z " fill="#000000"/><text fill="#000000" font-family="sans-serif" font-size="14" lengthAdjust="spacing" textLength="55.9998" x="254" y="435.7367">&#24555;&#20805;&#38431;&#21015;</text><line style="stroke:#181818;stroke-width:0.5;" x1="226" x2="311.9998" y1="446.89" y2="446.89"/><line style="stroke:#181818;stroke-width:0.5;" x1="226" x2="311.9998" y1="454.89" y2="454.89"/></g><!--class ????--><g class="entity" data-qualified-name="...." data-source-line="24" id="ent0010"><rect fill="#F1F1F1" height="48" rx="2.5" ry="2.5" style="stroke:#181818;stroke-width:0.5;" width="87.9998" x="348" y="414.89"/><ellipse cx="363" cy="430.89" fill="#ADD1B2" rx="11" ry="11" style="stroke:#181818;stroke-width:1;"/><path d="M365.9688,436.5306 Q365.3906,436.8275 364.75,436.9681 Q364.1094,437.1244 363.4063,437.1244 Q360.9063,437.1244 359.5781,435.4838 Q358.2656,433.8275 358.2656,430.7025 Q358.2656,427.5775 359.5781,425.9213 Q360.9063,424.265 363.4063,424.265 Q364.1094,424.265 364.75,424.4213 Q365.4063,424.5775 365.9688,424.8744 L365.9688,427.5931 Q365.3438,427.015 364.75,426.7494 Q364.1563,426.4681 363.5313,426.4681 Q362.1875,426.4681 361.5,427.5463 Q360.8125,428.6088 360.8125,430.7025 Q360.8125,432.7963 361.5,433.8744 Q362.1875,434.9369 363.5313,434.9369 Q364.1563,434.9369 364.75,434.6713 Q365.3438,434.39 365.9688,433.8119 L365.9688,436.5306 Z " fill="#000000"/><text fill="#000000" font-family="sans-serif" font-size="14" lengthAdjust="spacing" textLength="55.9998" x="377" y="435.7367">&#24930;&#20805;&#38431;&#21015;</text><line style="stroke:#181818;stroke-width:0.5;" x1="349" x2="434.9998" y1="446.89" y2="446.89"/><line style="stroke:#181818;stroke-width:0.5;" x1="349" x2="434.9998" y1="454.89" y2="454.89"/></g><!--class ???--><g class="entity" data-qualified-name="..." data-source-line="26" id="ent0011"><rect fill="#F1F1F1" height="64.2969" rx="2.5" ry="2.5" style="stroke:#181818;stroke-width:0.5;" width="73.9998" x="525" y="241"/><ellipse cx="540" cy="257" fill="#ADD1B2" rx="11" ry="11" style="stroke:#181818;stroke-width:1;"/><path d="M542.9688,262.6406 Q542.3906,262.9375 541.75,263.0781 Q541.1094,263.2344 540.4063,263.2344 Q537.9063,263.2344 536.5781,261.5938 Q535.2656,259.9375 535.2656,256.8125 Q535.2656,253.6875 536.5781,252.0313 Q537.9063,250.375 540.4063,250.375 Q541.1094,250.375 541.75,250.5313 Q542.4063,250.6875 542.9688,250.9844 L542.9688,253.7031 Q542.3438,253.125 541.75,252.8594 Q541.1563,252.5781 540.5313,252.5781 Q539.1875,252.5781 538.5,253.6563 Q537.8125,254.7188 537.8125,256.8125 Q537.8125,258.9063 538.5,259.9844 Q539.1875,261.0469 540.5313,261.0469 Q541.1563,261.0469 541.75,260.7813 Q542.3438,260.5 542.9688,259.9219 L542.9688,262.6406 Z " fill="#000000"/><text fill="#000000" font-family="sans-serif" font-size="14" lengthAdjust="spacing" textLength="41.9998" x="554" y="261.8467">&#20805;&#30005;&#26729;</text><line style="stroke:#181818;stroke-width:0.5;" x1="526" x2="597.9998" y1="273" y2="273"/><text fill="#000000" font-family="sans-serif" font-size="14" lengthAdjust="spacing" textLength="27.9999" x="531" y="289.9951">&#29366;&#24577;</text><line style="stroke:#181818;stroke-width:0.5;" x1="526" x2="597.9998" y1="297.2969" y2="297.2969"/></g><!--class ???--><g class="entity" data-qualified-name="..." data-source-line="29" id="ent0012"><rect fill="#F1F1F1" height="48" rx="2.5" ry="2.5" style="stroke:#181818;stroke-width:0.5;" width="73.9998" x="471" y="414.89"/><ellipse cx="486" cy="430.89" fill="#ADD1B2" rx="11" ry="11" style="stroke:#181818;stroke-width:1;"/><path d="M488.9688,436.5306 Q488.3906,436.8275 487.75,436.9681 Q487.1094,437.1244 486.4063,437.1244 Q483.9063,437.1244 482.5781,435.4838 Q481.2656,433.8275 481.2656,430.7025 Q481.2656,427.5775 482.5781,425.9213 Q483.9063,424.265 486.4063,424.265 Q487.1094,424.265 487.75,424.4213 Q488.4063,424.5775 488.9688,424.8744 L488.9688,427.5931 Q488.3438,427.015 487.75,426.7494 Q487.1563,426.4681 486.5313,426.4681 Q485.1875,426.4681 484.5,427.5463 Q483.8125,428.6088 483.8125,430.7025 Q483.8125,432.7963 484.5,433.8744 Q485.1875,434.9369 486.5313,434.9369 Q487.1563,434.9369 487.75,434.6713 Q488.3438,434.39 488.9688,433.8119 L488.9688,436.5306 Z " fill="#000000"/><text fill="#000000" font-family="sans-serif" font-size="14" lengthAdjust="spacing" textLength="41.9998" x="500" y="435.7367">&#24555;&#20805;&#26729;</text><line style="stroke:#181818;stroke-width:0.5;" x1="472" x2="543.9998" y1="446.89" y2="446.89"/><line style="stroke:#181818;stroke-width:0.5;" x1="472" x2="543.9998" y1="454.89" y2="454.89"/></g><!--class ???--><g class="entity" data-qualified-name="..." data-source-line="31" id="ent0013"><rect fill="#F1F1F1" height="48" rx="2.5" ry="2.5" style="stroke:#181818;stroke-width:0.5;" width="73.9998" x="580" y="414.89"/><ellipse cx="595" cy="430.89" fill="#ADD1B2" rx="11" ry="11" style="stroke:#181818;stroke-width:1;"/><path d="M597.9688,436.5306 Q597.3906,436.8275 596.75,436.9681 Q596.1094,437.1244 595.4063,437.1244 Q592.9063,437.1244 591.5781,435.4838 Q590.2656,433.8275 590.2656,430.7025 Q590.2656,427.5775 591.5781,425.9213 Q592.9063,424.265 595.4063,424.265 Q596.1094,424.265 596.75,424.4213 Q597.4063,424.5775 597.9688,424.8744 L597.9688,427.5931 Q597.3438,427.015 596.75,426.7494 Q596.1563,426.4681 595.5313,426.4681 Q594.1875,426.4681 593.5,427.5463 Q592.8125,428.6088 592.8125,430.7025 Q592.8125,432.7963 593.5,433.8744 Q594.1875,434.9369 595.5313,434.9369 Q596.1563,434.9369 596.75,434.6713 Q597.3438,434.39 597.9688,433.8119 L597.9688,436.5306 Z " fill="#000000"/><text fill="#000000" font-family="sans-serif" font-size="14" lengthAdjust="spacing" textLength="41.9998" x="609" y="435.7367">&#24930;&#20805;&#26729;</text><line style="stroke:#181818;stroke-width:0.5;" x1="581" x2="652.9998" y1="446.89" y2="446.89"/><line style="stroke:#181818;stroke-width:0.5;" x1="581" x2="652.9998" y1="454.89" y2="454.89"/></g><!--class ????--><g class="entity" data-qualified-name="...." data-source-line="33" id="ent0014"><rect fill="#F1F1F1" height="48" rx="2.5" ry="2.5" style="stroke:#181818;stroke-width:0.5;" width="87.9998" x="55" y="572.48"/><ellipse cx="70" cy="588.48" fill="#ADD1B2" rx="11" ry="11" style="stroke:#181818;stroke-width:1;"/><path d="M72.9688,594.1206 Q72.3906,594.4175 71.75,594.5581 Q71.1094,594.7144 70.4063,594.7144 Q67.9063,594.7144 66.5781,593.0738 Q65.2656,591.4175 65.2656,588.2925 Q65.2656,585.1675 66.5781,583.5113 Q67.9063,581.855 70.4063,581.855 Q71.1094,581.855 71.75,582.0113 Q72.4063,582.1675 72.9688,582.4644 L72.9688,585.1831 Q72.3438,584.605 71.75,584.3394 Q71.1563,584.0581 70.5313,584.0581 Q69.1875,584.0581 68.5,585.1363 Q67.8125,586.1988 67.8125,588.2925 Q67.8125,590.3863 68.5,591.4644 Q69.1875,592.5269 70.5313,592.5269 Q71.1563,592.5269 71.75,592.2613 Q72.3438,591.98 72.9688,591.4019 L72.9688,594.1206 Z " fill="#000000"/><text fill="#000000" font-family="sans-serif" font-size="14" lengthAdjust="spacing" textLength="55.9998" x="84" y="593.3267">&#35843;&#24230;&#35760;&#24405;</text><line style="stroke:#181818;stroke-width:0.5;" x1="56" x2="141.9998" y1="604.48" y2="604.48"/><line style="stroke:#181818;stroke-width:0.5;" x1="56" x2="141.9998" y1="612.48" y2="612.48"/></g><!--class ????--><g class="entity" data-qualified-name="...." data-source-line="35" id="ent0015"><rect fill="#F1F1F1" height="48" rx="2.5" ry="2.5" style="stroke:#181818;stroke-width:0.5;" width="87.9998" x="178" y="572.48"/><ellipse cx="193" cy="588.48" fill="#ADD1B2" rx="11" ry="11" style="stroke:#181818;stroke-width:1;"/><path d="M195.9688,594.1206 Q195.3906,594.4175 194.75,594.5581 Q194.1094,594.7144 193.4063,594.7144 Q190.9063,594.7144 189.5781,593.0738 Q188.2656,591.4175 188.2656,588.2925 Q188.2656,585.1675 189.5781,583.5113 Q190.9063,581.855 193.4063,581.855 Q194.1094,581.855 194.75,582.0113 Q195.4063,582.1675 195.9688,582.4644 L195.9688,585.1831 Q195.3438,584.605 194.75,584.3394 Q194.1563,584.0581 193.5313,584.0581 Q192.1875,584.0581 191.5,585.1363 Q190.8125,586.1988 190.8125,588.2925 Q190.8125,590.3863 191.5,591.4644 Q192.1875,592.5269 193.5313,592.5269 Q194.1563,592.5269 194.75,592.2613 Q195.3438,591.98 195.9688,591.4019 L195.9688,594.1206 Z " fill="#000000"/><text fill="#000000" font-family="sans-serif" font-size="14" lengthAdjust="spacing" textLength="55.9998" x="207" y="593.3267">&#20805;&#30005;&#35746;&#21333;</text><line style="stroke:#181818;stroke-width:0.5;" x1="179" x2="264.9998" y1="604.48" y2="604.48"/><line style="stroke:#181818;stroke-width:0.5;" x1="179" x2="264.9998" y1="612.48" y2="612.48"/></g><!--class ??--><g class="entity" data-qualified-name=".." data-source-line="37" id="ent0016"><rect fill="#F1F1F1" height="48" rx="2.5" ry="2.5" style="stroke:#181818;stroke-width:0.5;" width="59.9999" x="192" y="697.48"/><ellipse cx="207" cy="713.48" fill="#ADD1B2" rx="11" ry="11" style="stroke:#181818;stroke-width:1;"/><path d="M209.9688,719.1206 Q209.3906,719.4175 208.75,719.5581 Q208.1094,719.7144 207.4063,719.7144 Q204.9063,719.7144 203.5781,718.0738 Q202.2656,716.4175 202.2656,713.2925 Q202.2656,710.1675 203.5781,708.5113 Q204.9063,706.855 207.4063,706.855 Q208.1094,706.855 208.75,707.0113 Q209.4063,707.1675 209.9688,707.4644 L209.9688,710.1831 Q209.3438,709.605 208.75,709.3394 Q208.1563,709.0581 207.5313,709.0581 Q206.1875,709.0581 205.5,710.1363 Q204.8125,711.1988 204.8125,713.2925 Q204.8125,715.3863 205.5,716.4644 Q206.1875,717.5269 207.5313,717.5269 Q208.1563,717.5269 208.75,717.2613 Q209.3438,716.98 209.9688,716.4019 L209.9688,719.1206 Z " fill="#000000"/><text fill="#000000" font-family="sans-serif" font-size="14" lengthAdjust="spacing" textLength="27.9999" x="221" y="718.3267">&#36134;&#21333;</text><line style="stroke:#181818;stroke-width:0.5;" x1="193" x2="250.9999" y1="729.48" y2="729.48"/><line style="stroke:#181818;stroke-width:0.5;" x1="193" x2="250.9999" y1="737.48" y2="737.48"/></g><!--class ????--><g class="entity" data-qualified-name="...." data-source-line="39" id="ent0017"><rect fill="#F1F1F1" height="48" rx="2.5" ry="2.5" style="stroke:#181818;stroke-width:0.5;" width="87.9998" x="178" y="822.48"/><ellipse cx="193" cy="838.48" fill="#ADD1B2" rx="11" ry="11" style="stroke:#181818;stroke-width:1;"/><path d="M195.9688,844.1206 Q195.3906,844.4175 194.75,844.5581 Q194.1094,844.7144 193.4063,844.7144 Q190.9063,844.7144 189.5781,843.0738 Q188.2656,841.4175 188.2656,838.2925 Q188.2656,835.1675 189.5781,833.5113 Q190.9063,831.855 193.4063,831.855 Q194.1094,831.855 194.75,832.0113 Q195.4063,832.1675 195.9688,832.4644 L195.9688,835.1831 Q195.3438,834.605 194.75,834.3394 Q194.1563,834.0581 193.5313,834.0581 Q192.1875,834.0581 191.5,835.1363 Q190.8125,836.1988 190.8125,838.2925 Q190.8125,840.3863 191.5,841.4644 Q192.1875,842.5269 193.5313,842.5269 Q194.1563,842.5269 194.75,842.2613 Q195.3438,841.98 195.9688,841.4019 L195.9688,844.1206 Z " fill="#000000"/><text fill="#000000" font-family="sans-serif" font-size="14" lengthAdjust="spacing" textLength="55.9998" x="207" y="843.3267">&#35745;&#36153;&#35268;&#21017;</text><line style="stroke:#181818;stroke-width:0.5;" x1="179" x2="264.9998" y1="854.48" y2="854.48"/><line style="stroke:#181818;stroke-width:0.5;" x1="179" x2="264.9998" y1="862.48" y2="862.48"/></g><!--class ????--><g class="entity" data-qualified-name="...." data-source-line="41" id="ent0018"><rect fill="#F1F1F1" height="48" rx="2.5" ry="2.5" style="stroke:#181818;stroke-width:0.5;" width="87.9998" x="689" y="414.89"/><ellipse cx="704" cy="430.89" fill="#ADD1B2" rx="11" ry="11" style="stroke:#181818;stroke-width:1;"/><path d="M706.9688,436.5306 Q706.3906,436.8275 705.75,436.9681 Q705.1094,437.1244 704.4063,437.1244 Q701.9063,437.1244 700.5781,435.4838 Q699.2656,433.8275 699.2656,430.7025 Q699.2656,427.5775 700.5781,425.9213 Q701.9063,424.265 704.4063,424.265 Q705.1094,424.265 705.75,424.4213 Q706.4063,424.5775 706.9688,424.8744 L706.9688,427.5931 Q706.3438,427.015 705.75,426.7494 Q705.1563,426.4681 704.5313,426.4681 Q703.1875,426.4681 702.5,427.5463 Q701.8125,428.6088 701.8125,430.7025 Q701.8125,432.7963 702.5,433.8744 Q703.1875,434.9369 704.5313,434.9369 Q705.1563,434.9369 705.75,434.6713 Q706.3438,434.39 706.9688,433.8119 L706.9688,436.5306 Z " fill="#000000"/><text fill="#000000" font-family="sans-serif" font-size="14" lengthAdjust="spacing" textLength="55.9998" x="718" y="435.7367">&#25925;&#38556;&#35760;&#24405;</text><line style="stroke:#181818;stroke-width:0.5;" x1="690" x2="775.9998" y1="446.89" y2="446.89"/><line style="stroke:#181818;stroke-width:0.5;" x1="690" x2="775.9998" y1="454.89" y2="454.89"/></g><!--class ???--><g class="entity" data-qualified-name="..." data-source-line="43" id="ent0019"><rect fill="#F1F1F1" height="48" rx="2.5" ry="2.5" style="stroke:#181818;stroke-width:0.5;" width="73.9998" x="593" y="116"/><ellipse cx="608" cy="132" fill="#ADD1B2" rx="11" ry="11" style="stroke:#181818;stroke-width:1;"/><path d="M610.9688,137.6406 Q610.3906,137.9375 609.75,138.0781 Q609.1094,138.2344 608.4063,138.2344 Q605.9063,138.2344 604.5781,136.5938 Q603.2656,134.9375 603.2656,131.8125 Q603.2656,128.6875 604.5781,127.0313 Q605.9063,125.375 608.4063,125.375 Q609.1094,125.375 609.75,125.5313 Q610.4063,125.6875 610.9688,125.9844 L610.9688,128.7031 Q610.3438,128.125 609.75,127.8594 Q609.1563,127.5781 608.5313,127.5781 Q607.1875,127.5781 606.5,128.6563 Q605.8125,129.7188 605.8125,131.8125 Q605.8125,133.9063 606.5,134.9844 Q607.1875,136.0469 608.5313,136.0469 Q609.1563,136.0469 609.75,135.7813 Q610.3438,135.5 610.9688,134.9219 L610.9688,137.6406 Z " fill="#000000"/><text fill="#000000" font-family="sans-serif" font-size="14" lengthAdjust="spacing" textLength="41.9998" x="622" y="136.8467">&#31649;&#29702;&#21592;</text><line style="stroke:#181818;stroke-width:0.5;" x1="594" x2="665.9998" y1="148" y2="148"/><line style="stroke:#181818;stroke-width:0.5;" x1="594" x2="665.9998" y1="156" y2="156"/></g><!--class ??--><g class="entity" data-qualified-name=".." data-source-line="45" id="ent0020"><rect fill="#F1F1F1" height="48" rx="2.5" ry="2.5" style="stroke:#181818;stroke-width:0.5;" width="59.9999" x="634" y="249.14"/><ellipse cx="649" cy="265.14" fill="#ADD1B2" rx="11" ry="11" style="stroke:#181818;stroke-width:1;"/><path d="M651.9688,270.7806 Q651.3906,271.0775 650.75,271.2181 Q650.1094,271.3744 649.4063,271.3744 Q646.9063,271.3744 645.5781,269.7338 Q644.2656,268.0775 644.2656,264.9525 Q644.2656,261.8275 645.5781,260.1713 Q646.9063,258.515 649.4063,258.515 Q650.1094,258.515 650.75,258.6713 Q651.4063,258.8275 651.9688,259.1244 L651.9688,261.8431 Q651.3438,261.265 650.75,260.9994 Q650.1563,260.7181 649.5313,260.7181 Q648.1875,260.7181 647.5,261.7963 Q646.8125,262.8588 646.8125,264.9525 Q646.8125,267.0463 647.5,268.1244 Q648.1875,269.1869 649.5313,269.1869 Q650.1563,269.1869 650.75,268.9213 Q651.3438,268.64 651.9688,268.0619 L651.9688,270.7806 Z " fill="#000000"/><text fill="#000000" font-family="sans-serif" font-size="14" lengthAdjust="spacing" textLength="27.9999" x="663" y="269.9867">&#25253;&#34920;</text><line style="stroke:#181818;stroke-width:0.5;" x1="635" x2="692.9999" y1="281.14" y2="281.14"/><line style="stroke:#181818;stroke-width:0.5;" x1="635" x2="692.9999" y1="289.14" y2="289.14"/></g><!--link ?? to ??--><g class="link" data-entity-1="ent0002" data-entity-2="ent0003" data-link-type="association" data-source-line="48" id="lnk21"><path codeLine="48" d="M69.06,297.43 C63.75,308.63 57.85,322.39 54,335.29 C46.05,361.93 41.51,393.65 39.16,414.69" fill="none" id="&#29992;&#25143;-&#36710;&#36742;" style="stroke:#181818;stroke-width:1;"/><text fill="#000000" font-family="sans-serif" font-size="13" lengthAdjust="spacing" textLength="26" x="55" y="348.3569">&#32465;&#23450;</text><text fill="#000000" font-family="sans-serif" font-size="13" lengthAdjust="spacing" textLength="8.271" x="57.2077" y="317.2619">1</text><text fill="#000000" font-family="sans-serif" font-size="13" lengthAdjust="spacing" textLength="23.0356" x="13.7712" y="403.6508">1..*</text></g><!--link ?? to ????--><g class="link" data-entity-1="ent0002" data-entity-2="ent0004" data-link-type="association" data-source-line="49" id="lnk22"><path codeLine="49" d="M90.31,297.6 C99.02,319.53 112.36,353.13 123.8,381.95" fill="none" id="&#29992;&#25143;-&#20805;&#30005;&#35831;&#27714;" style="stroke:#181818;stroke-width:1;"/><text fill="#000000" font-family="sans-serif" font-size="13" lengthAdjust="spacing" textLength="26" x="113" y="348.3569">&#21457;&#36215;</text><text fill="#000000" font-family="sans-serif" font-size="13" lengthAdjust="spacing" textLength="8.271" x="83.5693" y="317.073">1</text><text fill="#000000" font-family="sans-serif" font-size="13" lengthAdjust="spacing" textLength="23.0356" x="96.695" y="371.1721">0..*</text></g><!--reverse link ??? to ???--><g class="link" data-entity-1="ent0005" data-entity-2="ent0006" data-link-type="composition" data-source-line="50" id="lnk23"><path codeLine="50" d="M404.745,66.1938 C395.745,84.0338 388.82,97.74 379.82,115.57" fill="none" id="&#20805;&#30005;&#31449;-backto-&#31561;&#20505;&#21306;" style="stroke:#181818;stroke-width:1;"/><polygon fill="#181818" points="410.15,55.48,403.8762,59.0353,404.745,66.1938,411.0188,62.6386,410.15,55.48" style="stroke:#181818;stroke-width:1;"/><text fill="#000000" font-family="sans-serif" font-size="13" lengthAdjust="spacing" textLength="8.271" x="373.7592" y="104.8701">1</text></g><!--reverse link ??? to ???--><g class="link" data-entity-1="ent0005" data-entity-2="ent0007" data-link-type="composition" data-source-line="51" id="lnk24"><path codeLine="51" d="M442.2095,65.7786 C452.8795,83.6186 461.32,97.74 471.99,115.57" fill="none" id="&#20805;&#30005;&#31449;-backto-&#20805;&#30005;&#21306;" style="stroke:#181818;stroke-width:1;"/><polygon fill="#181818" points="436.05,55.48,435.6969,62.6825,442.2095,65.7786,442.5626,58.5761,436.05,55.48" style="stroke:#181818;stroke-width:1;"/><text fill="#000000" font-family="sans-serif" font-size="13" lengthAdjust="spacing" textLength="8.271" x="459.6331" y="104.8701">1</text></g><!--reverse link ??? to ???--><g class="link" data-entity-1="ent0007" data-entity-2="ent0011" data-link-type="composition" data-source-line="52" id="lnk25"><path codeLine="52" d="M505.6042,174.8241 C517.8942,196.0441 530.09,217.09 543.68,240.52" fill="none" id="&#20805;&#30005;&#21306;-backto-&#20805;&#30005;&#26729;" style="stroke:#181818;stroke-width:1;"/><polygon fill="#181818" points="499.59,164.44,499.1357,171.6368,505.6042,174.8241,506.0585,167.6273,499.59,164.44" style="stroke:#181818;stroke-width:1;"/><text fill="#000000" font-family="sans-serif" font-size="13" lengthAdjust="spacing" textLength="23.0356" x="514.999" y="229.9501">1..*</text></g><!--reverse link ??? to ????--><g class="link" data-entity-1="ent0006" data-entity-2="ent0008" data-link-type="composition" data-source-line="53" id="lnk26"><path codeLine="53" d="M343.9779,174.1564 C326.6779,198.0264 307.08,225.1 289.84,248.9" fill="none" id="&#31561;&#20505;&#21306;-backto-&#31561;&#24453;&#38431;&#21015;" style="stroke:#181818;stroke-width:1;"/><polygon fill="#181818" points="351.02,164.44,344.2601,166.9509,343.9779,174.1564,350.7378,171.6456,351.02,164.44" style="stroke:#181818;stroke-width:1;"/><text fill="#000000" font-family="sans-serif" font-size="13" lengthAdjust="spacing" textLength="23.0356" x="268.146" y="238.2465">1..*</text></g><!--reverse link ???? to ????--><g class="link" data-entity-1="ent0008" data-entity-2="ent0009" data-link-type="extension" data-source-line="54" id="lnk27"><path codeLine="54" d="M271.9907,315.5946 C271.2307,346.7246 270.33,383.36 269.57,414.47" fill="none" id="&#31561;&#24453;&#38431;&#21015;-backto-&#24555;&#20805;&#38431;&#21015;" style="stroke:#181818;stroke-width:1;"/><polygon fill="none" points="272.43,297.6,265.9925,315.4482,277.9889,315.7411,272.43,297.6" style="stroke:#181818;stroke-width:1;"/></g><!--reverse link ???? to ????--><g class="link" data-entity-1="ent0008" data-entity-2="ent0010" data-link-type="extension" data-source-line="55" id="lnk28"><path codeLine="55" d="M300.631,312.1617 C323.251,343.2917 352.38,383.36 374.98,414.47" fill="none" id="&#31561;&#24453;&#38431;&#21015;-backto-&#24930;&#20805;&#38431;&#21015;" style="stroke:#181818;stroke-width:1;"/><polygon fill="none" points="290.05,297.6,295.7771,315.6887,305.4849,308.6347,290.05,297.6" style="stroke:#181818;stroke-width:1;"/></g><!--reverse link ???? to ????--><g class="link" data-entity-1="ent0008" data-entity-2="ent0004" data-link-type="aggregation" data-source-line="56" id="lnk29"><path codeLine="56" d="M247.4453,307.082 C230.4353,329.012 211.74,353.13 189.38,381.95" fill="none" id="&#31561;&#24453;&#38431;&#21015;-backto-&#20805;&#30005;&#35831;&#27714;" style="stroke:#181818;stroke-width:1;"/><polygon fill="none" points="254.8,297.6,247.962,299.8894,247.4453,307.082,254.2833,304.7926,254.8,297.6" style="stroke:#181818;stroke-width:1;"/><text fill="#000000" font-family="sans-serif" font-size="13" lengthAdjust="spacing" textLength="26" x="226" y="348.3569">&#31649;&#29702;</text><text fill="#000000" font-family="sans-serif" font-size="13" lengthAdjust="spacing" textLength="23.0356" x="170.2676" y="371.1721">0..*</text></g><!--reverse link ??? to ???--><g class="link" data-entity-1="ent0011" data-entity-2="ent0012" data-link-type="extension" data-source-line="57" id="lnk30"><path codeLine="57" d="M545.9526,322.8144 C535.4426,354.6844 525.09,386.08 515.68,414.61" fill="none" id="&#20805;&#30005;&#26729;-backto-&#24555;&#20805;&#26729;" style="stroke:#181818;stroke-width:1;"/><polygon fill="none" points="551.59,305.72,540.2545,320.9353,551.6508,324.6936,551.59,305.72" style="stroke:#181818;stroke-width:1;"/></g><!--reverse link ??? to ???--><g class="link" data-entity-1="ent0011" data-entity-2="ent0013" data-link-type="extension" data-source-line="58" id="lnk31"><path codeLine="58" d="M578.3338,322.7823 C589.0438,354.6523 599.6,386.08 609.18,414.61" fill="none" id="&#20805;&#30005;&#26729;-backto-&#24930;&#20805;&#26729;" style="stroke:#181818;stroke-width:1;"/><polygon fill="none" points="572.6,305.72,572.6464,324.6936,584.0213,320.871,572.6,305.72" style="stroke:#181818;stroke-width:1;"/></g><!--link ??? to ????--><g class="link" data-entity-1="ent0011" data-entity-2="ent0018" data-link-type="association" data-source-line="59" id="lnk32"><path codeLine="59" d="M594.97,305.72 C628.26,337.59 678.89,386.08 708.69,414.61" fill="none" id="&#20805;&#30005;&#26729;-&#25925;&#38556;&#35760;&#24405;" style="stroke:#181818;stroke-width:1;"/><text fill="#000000" font-family="sans-serif" font-size="13" lengthAdjust="spacing" textLength="26" x="644" y="348.3569">&#20135;&#29983;</text><text fill="#000000" font-family="sans-serif" font-size="13" lengthAdjust="spacing" textLength="8.271" x="592.5183" y="325.4382">1</text><text fill="#000000" font-family="sans-serif" font-size="13" lengthAdjust="spacing" textLength="23.0356" x="676.9657" y="403.9467">0..*</text></g><!--link ???? to ????--><g class="link" data-entity-1="ent0004" data-entity-2="ent0014" data-link-type="association" data-source-line="60" id="lnk33"><path codeLine="60" d="M129.16,495.62 C121.21,521.95 112.14,551.96 106.05,572.15" fill="none" id="&#20805;&#30005;&#35831;&#27714;-&#35843;&#24230;&#35760;&#24405;" style="stroke:#181818;stroke-width:1;"/><text fill="#000000" font-family="sans-serif" font-size="13" lengthAdjust="spacing" textLength="26" x="121" y="538.5469">&#24418;&#25104;</text><text fill="#000000" font-family="sans-serif" font-size="13" lengthAdjust="spacing" textLength="8.271" x="118.6367" y="515.5238">1</text><text fill="#000000" font-family="sans-serif" font-size="13" lengthAdjust="spacing" textLength="8.271" x="98.8265" y="561.4745">1</text></g><!--link ???? to ????--><g class="link" data-entity-1="ent0004" data-entity-2="ent0015" data-link-type="association" data-source-line="61" id="lnk34"><path codeLine="61" d="M173.22,495.62 C186.09,521.95 200.74,551.96 210.61,572.15" fill="none" id="&#20805;&#30005;&#35831;&#27714;-&#20805;&#30005;&#35746;&#21333;" style="stroke:#181818;stroke-width:1;"/><text fill="#000000" font-family="sans-serif" font-size="13" lengthAdjust="spacing" textLength="26" x="197" y="538.5469">&#29983;&#25104;</text><text fill="#000000" font-family="sans-serif" font-size="13" lengthAdjust="spacing" textLength="8.271" x="168.0665" y="515.5238">1</text><text fill="#000000" font-family="sans-serif" font-size="13" lengthAdjust="spacing" textLength="8.271" x="198.8917" y="561.4745">1</text></g><!--link ???? to ??--><g class="link" data-entity-1="ent0015" data-entity-2="ent0016" data-link-type="association" data-source-line="62" id="lnk35"><path codeLine="62" d="M222,620.9 C222,642.79 222,675.28 222,697.14" fill="none" id="&#20805;&#30005;&#35746;&#21333;-&#36134;&#21333;" style="stroke:#181818;stroke-width:1;"/><text fill="#000000" font-family="sans-serif" font-size="13" lengthAdjust="spacing" textLength="26" x="223" y="663.5469">&#20135;&#29983;</text><text fill="#000000" font-family="sans-serif" font-size="13" lengthAdjust="spacing" textLength="8.271" x="213.1064" y="640.3638">1</text><text fill="#000000" font-family="sans-serif" font-size="13" lengthAdjust="spacing" textLength="8.271" x="213.058" y="686.4621">1</text></g><!--link ?? to ????--><g class="link" data-entity-1="ent0016" data-entity-2="ent0017" data-link-type="association" data-source-line="63" id="lnk36"><path codeLine="63" d="M222,745.9 C222,767.79 222,800.28 222,822.14" fill="none" id="&#36134;&#21333;-&#35745;&#36153;&#35268;&#21017;" style="stroke:#181818;stroke-width:1;"/><text fill="#000000" font-family="sans-serif" font-size="13" lengthAdjust="spacing" textLength="26" x="223" y="788.5469">&#20381;&#36182;</text><text fill="#000000" font-family="sans-serif" font-size="13" lengthAdjust="spacing" textLength="23.0356" x="196.3448" y="765.3638">0..*</text><text fill="#000000" font-family="sans-serif" font-size="13" lengthAdjust="spacing" textLength="8.271" x="213.0581" y="811.4621">1</text></g><!--link ??? to ???--><g class="link" data-entity-1="ent0019" data-entity-2="ent0011" data-link-type="association" data-source-line="64" id="lnk37"><path codeLine="64" d="M601.26,164.42 C592.58,172.89 583.81,183.07 578,194 C570.39,208.3 566.39,225.85 564.3,240.7" fill="none" id="&#31649;&#29702;&#21592;-&#20805;&#30005;&#26729;" style="stroke:#181818;stroke-width:1;"/><text fill="#000000" font-family="sans-serif" font-size="13" lengthAdjust="spacing" textLength="56.3799" x="579" y="207.0669">&#26597;&#30475;/&#31649;&#29702;</text><text fill="#000000" font-family="sans-serif" font-size="13" lengthAdjust="spacing" textLength="8.271" x="585.7202" y="183.8838">1</text><text fill="#000000" font-family="sans-serif" font-size="13" lengthAdjust="spacing" textLength="23.0356" x="567.0204" y="229.9151">0..*</text></g><!--link ??? to ??--><g class="link" data-entity-1="ent0019" data-entity-2="ent0020" data-link-type="association" data-source-line="65" id="lnk38"><path codeLine="65" d="M636.08,164.44 C642.27,188.31 651.8,225.1 657.97,248.9" fill="none" id="&#31649;&#29702;&#21592;-&#25253;&#34920;" style="stroke:#181818;stroke-width:1;"/><text fill="#000000" font-family="sans-serif" font-size="13" lengthAdjust="spacing" textLength="26" x="650" y="207.0669">&#26597;&#30475;</text><text fill="#000000" font-family="sans-serif" font-size="13" lengthAdjust="spacing" textLength="8.271" x="628.5924" y="183.9084">1</text><text fill="#000000" font-family="sans-serif" font-size="13" lengthAdjust="spacing" textLength="23.0356" x="630.7014" y="238.2465">0..*</text></g><?plantuml-src TLFBJi905DtFLqow905rIzoPkFGVAXPZmDQqk58JV5GHDKY2YgzWIGGCiMe24b7mPvm7V-7GbdQcb5KxvvpUU-UUKoEpeMx9khm9rvIql9tDBMjgRaNULA0XgqRSKFIDD31yqQgSogphshQwjgHbDHtcTAPYbABc04XbPSE0fDB2XHxS0NiUG0SDEZpc06IQfDAbRptySS1W2DrNydEDIZrsT7dSij1FYHt9lOsVJXWoEd6EnK-StmyL8-rRhW5vFKNvMtJUdsegOcFTq1nLQwXmmqj_sqmz1MEp7WLxqrelpbN2qpcbN5Ai8sBq_H3r6zH-HuEhwKtPTNJ1mxJJ206sHJjVj7c42lmUy9KvkdkOgafiYrmUetALbnQVgTLo0E0vA2r8C1vdZqGY9arSJ4BoNKRsNLWqxuW4PvCGbSgqsmE1HJ6ddXGO5C7vHe70ibWmXxzk4BZCqRobGF1tSPUfU6iZQDvYaTPcNjBT9WXYm3KQZnaYVFSvGboYu5eI_lMRf583GbVV6abC3blve8uBbpFLGg3Ox9KQftPHlhQRCty6x-pDEH7nsMFIuIFjNeCWOr496Lyw2N7jcJoSpNaBdFM5byo9dFrZ4Fu3?></g></svg>