<?plantuml 1.2026.1?><svg xmlns="http://www.w3.org/2000/svg" xmlns:xlink="http://www.w3.org/1999/xlink" contentStyleType="text/css" data-diagram-type="DESCRIPTION" height="808px" preserveAspectRatio="none" style="width:326px;height:808px;" version="1.1" viewBox="0 0 326 808" width="326px" zoomAndPan="magnify"><defs/><g><!--cluster ???????????--><g class="cluster" data-qualified-name="..........." data-source-line="9" id="ent0005"><rect fill="none" height="795" rx="2.5" ry="2.5" style="stroke:#181818;stroke-width:1;" width="200.23" x="120" y="7"/><text fill="#000000" font-family="sans-serif" font-size="14" font-weight="bold" lengthAdjust="spacing" textLength="153.9993" x="143.1153" y="21.9951">&#26234;&#33021;&#20805;&#30005;&#31449;&#35745;&#36153;&#35843;&#24230;&#31995;&#32479;</text></g><!--entity UC01_??????--><g class="entity" data-qualified-name="............UC01_......" data-source-line="10" id="ent0006"><ellipse cx="220.1166" cy="199.9993" fill="#F1F1F1" rx="78.1466" ry="18.0293" style="stroke:#181818;stroke-width:0.5;"/><text fill="#000000" font-family="sans-serif" font-size="14" lengthAdjust="spacing" textLength="126.2867" x="156.9732" y="204.6478">UC01 &#25552;&#20132;&#20805;&#30005;&#35831;&#27714;</text></g><!--entity UC02_??????--><g class="entity" data-qualified-name="............UC02_......" data-source-line="11" id="ent0007"><ellipse cx="220.1166" cy="270.9993" fill="#F1F1F1" rx="78.1466" ry="18.0293" style="stroke:#181818;stroke-width:0.5;"/><text fill="#000000" font-family="sans-serif" font-size="14" lengthAdjust="spacing" textLength="126.2867" x="156.9732" y="275.6478">UC02 &#26597;&#30475;&#25490;&#38431;&#29366;&#24577;</text></g><!--entity UC03_??????--><g class="entity" data-qualified-name="............UC03_......" data-source-line="12" id="ent0008"><ellipse cx="220.1166" cy="341.9993" fill="#F1F1F1" rx="78.1466" ry="18.0293" style="stroke:#181818;stroke-width:0.5;"/><text fill="#000000" font-family="sans-serif" font-size="14" lengthAdjust="spacing" textLength="126.2867" x="156.9732" y="346.6478">UC03 &#20462;&#25913;&#20805;&#30005;&#35831;&#27714;</text></g><!--entity UC04_??????--><g class="entity" data-qualified-name="............UC04_......" data-source-line="13" id="ent0009"><ellipse cx="220.1166" cy="412.9993" fill="#F1F1F1" rx="78.1466" ry="18.0293" style="stroke:#181818;stroke-width:0.5;"/><text fill="#000000" font-family="sans-serif" font-size="14" lengthAdjust="spacing" textLength="126.2867" x="156.9732" y="417.6478">UC04 &#21462;&#28040;&#20805;&#30005;&#35831;&#27714;</text></g><!--entity UC05_????--><g class="entity" data-qualified-name="............UC05_...." data-source-line="14" id="ent0010"><ellipse cx="220.1157" cy="481.9971" fill="#F1F1F1" rx="66.8357" ry="15.7671" style="stroke:#181818;stroke-width:0.5;"/><text fill="#000000" font-family="sans-serif" font-size="14" lengthAdjust="spacing" textLength="98.2869" x="170.9723" y="486.6456">UC05 &#24320;&#22987;&#20805;&#30005;</text></g><!--entity UC06_???????--><g class="entity" data-qualified-name="............UC06_......." data-source-line="15" id="ent0011"><ellipse cx="220.1173" cy="61.0035" fill="#F1F1F1" rx="84.1173" ry="19.2235" style="stroke:#181818;stroke-width:0.5;"/><text fill="#000000" font-family="sans-serif" font-size="14" lengthAdjust="spacing" textLength="140.2867" x="149.9739" y="65.6519">UC06 &#32467;&#26463;&#20805;&#30005;&#24182;&#32467;&#31639;</text></g><!--entity UC07_????--><g class="entity" data-qualified-name="............UC07_...." data-source-line="16" id="ent0012"><ellipse cx="220.1157" cy="130.9971" fill="#F1F1F1" rx="66.8357" ry="15.7671" style="stroke:#181818;stroke-width:0.5;"/><text fill="#000000" font-family="sans-serif" font-size="14" lengthAdjust="spacing" textLength="98.2869" x="170.9723" y="135.6456">UC07 &#26597;&#30475;&#36134;&#21333;</text></g><!--entity UC08_???????--><g class="entity" data-qualified-name="............UC08_......." data-source-line="18" id="ent0013"><ellipse cx="220.1173" cy="552.0035" fill="#F1F1F1" rx="84.1173" ry="19.2235" style="stroke:#181818;stroke-width:0.5;"/><text fill="#000000" font-family="sans-serif" font-size="14" lengthAdjust="spacing" textLength="140.2867" x="149.9739" y="556.6519">UC08 &#26597;&#30475;&#20805;&#30005;&#26729;&#29366;&#24577;</text></g><!--entity UC09_???????--><g class="entity" data-qualified-name="............UC09_......." data-source-line="19" id="ent0014"><ellipse cx="220.1173" cy="625.0035" fill="#F1F1F1" rx="84.1173" ry="19.2235" style="stroke:#181818;stroke-width:0.5;"/><text fill="#000000" font-family="sans-serif" font-size="14" lengthAdjust="spacing" textLength="140.2867" x="149.9739" y="629.6519">UC09 &#22788;&#29702;&#20805;&#30005;&#26729;&#25925;&#38556;</text></g><!--entity UC10_??????--><g class="entity" data-qualified-name="............UC10_......" data-source-line="20" id="ent0015"><ellipse cx="220.1166" cy="696.9993" fill="#F1F1F1" rx="78.1466" ry="18.0293" style="stroke:#181818;stroke-width:0.5;"/><text fill="#000000" font-family="sans-serif" font-size="14" lengthAdjust="spacing" textLength="126.2867" x="156.9732" y="701.6478">UC10 &#26597;&#30475;&#36816;&#33829;&#25253;&#34920;</text></g><!--entity UC11_??????--><g class="entity" data-qualified-name="............UC11_......" data-source-line="21" id="ent0016"><ellipse cx="220.1166" cy="767.9993" fill="#F1F1F1" rx="78.1466" ry="18.0293" style="stroke:#181818;stroke-width:0.5;"/><text fill="#000000" font-family="sans-serif" font-size="14" lengthAdjust="spacing" textLength="126.2867" x="156.9732" y="772.6478">UC11 &#32500;&#25252;&#35745;&#36153;&#35268;&#21017;</text></g><!--entity ??--><g class="entity" data-qualified-name=".." data-source-line="5" id="ent0002"><ellipse cx="40.9999" cy="241.35" fill="#F1F1F1" rx="8" ry="8" style="stroke:#181818;stroke-width:0.5;"/><path d="M40.9999,249.35 L40.9999,276.35 M27.9999,257.35 L53.9999,257.35 M40.9999,276.35 L27.9999,291.35 M40.9999,276.35 L53.9999,291.35" fill="none" style="stroke:#181818;stroke-width:0.5;"/><text fill="#000000" font-family="sans-serif" font-size="14" lengthAdjust="spacing" textLength="27.9999" x="27" y="305.8451">&#29992;&#25143;</text></g><!--entity ???--><g class="entity" data-qualified-name="..." data-source-line="6" id="ent0003"><ellipse cx="40.9999" cy="631.35" fill="#F1F1F1" rx="8" ry="8" style="stroke:#181818;stroke-width:0.5;"/><path d="M40.9999,639.35 L40.9999,666.35 M27.9999,647.35 L53.9999,647.35 M40.9999,666.35 L27.9999,681.35 M40.9999,666.35 L53.9999,681.35" fill="none" style="stroke:#181818;stroke-width:0.5;"/><text fill="#000000" font-family="sans-serif" font-size="14" lengthAdjust="spacing" textLength="41.9998" x="20" y="695.8451">&#31649;&#29702;&#21592;</text></g><!--entity ?????--><g class="entity" data-qualified-name="....." data-source-line="7" id="ent0004"><ellipse cx="40.9998" cy="452.35" fill="#F1F1F1" rx="8" ry="8" style="stroke:#181818;stroke-width:0.5;"/><path d="M40.9998,460.35 L40.9998,487.35 M27.9998,468.35 L53.9998,468.35 M40.9998,487.35 L27.9998,502.35 M40.9998,487.35 L53.9998,502.35" fill="none" style="stroke:#181818;stroke-width:0.5;"/><text fill="#000000" font-family="sans-serif" font-size="14" lengthAdjust="spacing" textLength="69.9997" x="6" y="516.8451">&#20805;&#30005;&#26729;&#35774;&#22791;</text></g><!--link ?? to UC01_??????--><g class="link" data-entity-1="ent0002" data-entity-2="ent0006" data-link-type="dependency" data-source-line="23" id="lnk17"><path d="M55.38,263.31 C69.24,255.53 91.7,243.47 112,235 C130.6,227.24 145.8488,221.8677 164.2688,216.0477" fill="none" id="&#29992;&#25143;-to-UC01_&#25552;&#20132;&#20805;&#30005;&#35831;&#27714;" style="stroke:#181818;stroke-width:1;"/><polygon fill="#181818" points="169.99,214.24,160.2031,213.1374,165.2223,215.7464,162.6133,220.7657,169.99,214.24" style="stroke:#181818;stroke-width:1;"/></g><!--link ?? to UC02_??????--><g class="link" data-entity-1="ent0002" data-entity-2="ent0007" data-link-type="dependency" data-source-line="24" id="lnk18"><path d="M55.31,271 C73.82,271 102.75,271 135.62,271" fill="none" id="&#29992;&#25143;-to-UC02_&#26597;&#30475;&#25490;&#38431;&#29366;&#24577;" style="stroke:#181818;stroke-width:1;"/><polygon fill="#181818" points="141.62,271,132.62,267,136.62,271,132.62,275,141.62,271" style="stroke:#181818;stroke-width:1;"/></g><!--link ?? to UC03_??????--><g class="link" data-entity-1="ent0002" data-entity-2="ent0008" data-link-type="dependency" data-source-line="25" id="lnk19"><path d="M55.38,278.69 C69.24,286.47 91.7,298.53 112,307 C130.6,314.76 145.8488,320.1323 164.2688,325.9523" fill="none" id="&#29992;&#25143;-to-UC03_&#20462;&#25913;&#20805;&#30005;&#35831;&#27714;" style="stroke:#181818;stroke-width:1;"/><polygon fill="#181818" points="169.99,327.76,162.6133,321.2343,165.2223,326.2536,160.2031,328.8626,169.99,327.76" style="stroke:#181818;stroke-width:1;"/></g><!--link ?? to UC04_??????--><g class="link" data-entity-1="ent0002" data-entity-2="ent0009" data-link-type="dependency" data-source-line="26" id="lnk20"><path d="M55.41,302.37 C67.12,326.26 86.27,358.29 112,378 C125.82,388.59 137.2601,394.2281 153.7701,399.4581" fill="none" id="&#29992;&#25143;-to-UC04_&#21462;&#28040;&#20805;&#30005;&#35831;&#27714;" style="stroke:#181818;stroke-width:1;"/><polygon fill="#181818" points="159.49,401.27,152.1181,394.7389,154.7234,399.7601,149.7022,402.3654,159.49,401.27" style="stroke:#181818;stroke-width:1;"/></g><!--link ?? to UC05_????--><g class="link" data-entity-1="ent0002" data-entity-2="ent0010" data-link-type="dependency" data-source-line="27" id="lnk21"><path d="M47.22,309.47 C54.67,349.72 72.18,412.09 112,449 C125.56,461.57 138.0133,467.7643 155.6033,472.5843" fill="none" id="&#29992;&#25143;-to-UC05_&#24320;&#22987;&#20805;&#30005;" style="stroke:#181818;stroke-width:1;"/><polygon fill="#181818" points="161.39,474.17,153.7671,467.9337,156.5678,472.8486,151.6529,475.6493,161.39,474.17" style="stroke:#181818;stroke-width:1;"/></g><!--link ?? to UC06_???????--><g class="link" data-entity-1="ent0002" data-entity-2="ent0011" data-link-type="dependency" data-source-line="28" id="lnk22"><path d="M48.06,232.41 C56.12,193.45 74.05,134.03 112,98 C123.84,86.76 133.6137,80.9115 149.0437,75.4515" fill="none" id="&#29992;&#25143;-to-UC06_&#32467;&#26463;&#20805;&#30005;&#24182;&#32467;&#31639;" style="stroke:#181818;stroke-width:1;"/><polygon fill="#181818" points="154.7,73.45,144.8812,72.6814,149.9864,75.1179,147.5499,80.2232,154.7,73.45" style="stroke:#181818;stroke-width:1;"/></g><!--link ?? to UC07_????--><g class="link" data-entity-1="ent0002" data-entity-2="ent0012" data-link-type="dependency" data-source-line="29" id="lnk23"><path d="M55.32,239.51 C66.98,215.55 86.1,183.49 112,164 C127.24,152.53 140.7228,146.5936 158.7028,141.6736" fill="none" id="&#29992;&#25143;-to-UC07_&#26597;&#30475;&#36134;&#21333;" style="stroke:#181818;stroke-width:1;"/><polygon fill="#181818" points="164.49,140.09,154.7534,138.6072,159.6673,141.4097,156.8649,146.3236,164.49,140.09" style="stroke:#181818;stroke-width:1;"/></g><!--link ??? to UC08_???????--><g class="link" data-entity-1="ent0003" data-entity-2="ent0013" data-link-type="dependency" data-source-line="31" id="lnk24"><path d="M62.47,633.89 C75.25,618.57 92.87,600.13 112,588 C126.74,578.65 138.4803,573.3245 154.9603,567.9045" fill="none" id="&#31649;&#29702;&#21592;-to-UC08_&#26597;&#30475;&#20805;&#30005;&#26729;&#29366;&#24577;" style="stroke:#181818;stroke-width:1;"/><polygon fill="#181818" points="160.66,566.03,150.8608,565.042,155.9103,567.5921,153.3602,572.6416,160.66,566.03" style="stroke:#181818;stroke-width:1;"/></g><!--link ??? to UC09_???????--><g class="link" data-entity-1="ent0003" data-entity-2="ent0014" data-link-type="dependency" data-source-line="32" id="lnk25"><path d="M62.32,656.87 C85.12,652.23 117.37,645.6739 150.32,638.9839" fill="none" id="&#31649;&#29702;&#21592;-to-UC09_&#22788;&#29702;&#20805;&#30005;&#26729;&#25925;&#38556;" style="stroke:#181818;stroke-width:1;"/><polygon fill="#181818" points="156.2,637.79,146.5841,635.6608,151.3,638.7849,148.1759,643.5008,156.2,637.79" style="stroke:#181818;stroke-width:1;"/></g><!--link ??? to UC10_??????--><g class="link" data-entity-1="ent0003" data-entity-2="ent0015" data-link-type="dependency" data-source-line="33" id="lnk26"><path d="M62.32,665.13 C86.12,669.97 120.7504,677.0039 154.6204,683.8939" fill="none" id="&#31649;&#29702;&#21592;-to-UC10_&#26597;&#30475;&#36816;&#33829;&#25253;&#34920;" style="stroke:#181818;stroke-width:1;"/><polygon fill="#181818" points="160.5,685.09,152.478,679.3762,155.6004,684.0933,150.8833,687.2156,160.5,685.09" style="stroke:#181818;stroke-width:1;"/></g><!--link ??? to UC11_??????--><g class="link" data-entity-1="ent0003" data-entity-2="ent0016" data-link-type="dependency" data-source-line="34" id="lnk27"><path d="M62.2,687.44 C75.02,702.63 92.77,721.01 112,733 C127.52,742.68 140.2598,748.181 157.4598,753.521" fill="none" id="&#31649;&#29702;&#21592;-to-UC11_&#32500;&#25252;&#35745;&#36153;&#35268;&#21017;" style="stroke:#181818;stroke-width:1;"/><polygon fill="#181818" points="163.19,755.3,155.7807,748.8113,158.4148,753.8175,153.4087,756.4516,163.19,755.3" style="stroke:#181818;stroke-width:1;"/></g><!--link ????? to UC05_????--><g class="link" data-entity-1="ent0004" data-entity-2="ent0010" data-link-type="dependency" data-source-line="36" id="lnk28"><path d="M76.15,482 C97.86,482 120.7,482 146.79,482" fill="none" id="&#20805;&#30005;&#26729;&#35774;&#22791;-to-UC05_&#24320;&#22987;&#20805;&#30005;" style="stroke:#181818;stroke-width:1;"/><polygon fill="#181818" points="152.79,482,143.79,478,147.79,482,143.79,486,152.79,482" style="stroke:#181818;stroke-width:1;"/></g><?plantuml-src TPJBJjj058RtVeeZzf5YxcpO87NP7Mjhcao2HR0hUxAgAj52sYY8aaAu1555aHAWgcH0JOEIjELbc0jlWIDx4FQCbpF__vqPd_Dx_4tRUOyyj0L5N4BL2ddZEkGjsiBW8yVF-TYpIuR_Odg72fjbpwqwnJMtudf0lD0LIjWXXb719GB41SykRn0esXuk4Djr35GWePMthbdzNYw2Bcz-eT_FuZMjrNZh3-l-5C5_sljg65CMEUKA1jOUYvr_aO7_QekWAmOZSRj3nvVyzuHFEl310AZwk81y3EjhUTDY1yt7SIz2nCqzk_iCo8UPgGQgDfF4PotMwVEBFVRjyEcimnj3jlr9uhEWQYbypdfy25Xhf3jz3bGjXSzRzE243UiwV1vKBOKlMFJlDhtQYomIN83NkobaqUAJ8_QZ4ubqD0oNF3YLx29evLIHfRXfOd19zuybkmIlTwT8abgEgPVf9xkz35evTVIAHNkxqp195pkkFPrVo28he9MJHSoylFz3KpJxhD4NtUkuWfa7LKlXPjZ30Mlqud1UxT9wM-8cg5hSYkYNW5nkDIktYacNJiMaow1YqYLDCINpfCWPsL5yoNZ47o-V06dAI8FEcZ5pZLKxMPrFDyBeegctAQCr7qCdm3C0?></g></svg>